<?xml version="1.0" encoding="utf-8"?>
<!-- Generator: Adobe Illustrator 22.1.0, SVG Export Plug-In . SVG Version: 6.00 Build 0)  -->
<svg version="1.1" id="Layer_1" xmlns="http://www.w3.org/2000/svg" xmlns:xlink="http://www.w3.org/1999/xlink" x="0px" y="0px"
	 viewBox="0 0 252 58" style="enable-background:new 0 0 252 58;" xml:space="preserve">
<style type="text/css">
	.st0{fill:#DF193A;}
	.st1{fill:#FFFFFF;}
	.st2{fill:#8F9BB4;}
</style>
<g>
	<g>
		<g>
			<path class="st0" d="M55,20.3H12.7c-0.5,0-0.9-0.4-0.9-0.9c0-0.5,0.4-0.9,0.9-0.9H55c0.5,0,0.9,0.4,0.9,0.9
				C55.9,19.9,55.5,20.3,55,20.3z"/>
			<path class="st0" d="M55,48.4H12.7c-0.5,0-0.9-0.4-0.9-0.9c0-0.5,0.4-0.9,0.9-0.9H55c0.5,0,0.9,0.4,0.9,0.9
				C55.9,48,55.5,48.4,55,48.4z"/>
			<g>
				<path class="st0" d="M13.6,17.1c-0.3,0-0.7-0.2-0.8-0.5c-0.2-0.5,0-1,0.5-1.2l20.2-9.1c0.3-0.1,0.6-0.1,0.9,0.1
					c0.3,0.2,0.4,0.5,0.4,0.8v9.1c0,0.5-0.4,0.9-0.9,0.9c-0.5,0-0.9-0.4-0.9-0.9V8.5L14,17C13.9,17.1,13.8,17.1,13.6,17.1z"/>
				<path class="st0" d="M54,17.1c-0.1,0-0.3,0-0.4-0.1L33.5,7.9C33,7.7,32.8,7.2,33,6.7c0.2-0.5,0.7-0.7,1.2-0.5l20.2,9.1
					c0.5,0.2,0.7,0.7,0.5,1.2C54.7,16.9,54.4,17.1,54,17.1z"/>
				<path class="st0" d="M33.8,17.1c-0.5,0-0.9-0.4-0.9-0.9V7.1c0-0.5,0.4-0.9,0.9-0.9c0.5,0,0.9,0.4,0.9,0.9v9.1
					C34.7,16.7,34.3,17.1,33.8,17.1z"/>
			</g>
		</g>
		<g>
			<g>
				<path class="st0" d="M20.1,23.7h-6.5c-0.5,0-0.9-0.4-0.9-0.9c0-0.5,0.4-0.9,0.9-0.9h6.5c0.5,0,0.9,0.4,0.9,0.9
					C21,23.3,20.6,23.7,20.1,23.7z"/>
				<path class="st0" d="M20.1,45.3h-6.5c-0.5,0-0.9-0.4-0.9-0.9c0-0.5,0.4-0.9,0.9-0.9h6.5c0.5,0,0.9,0.4,0.9,0.9
					C21,44.9,20.6,45.3,20.1,45.3z"/>
				<g>
					<path class="st0" d="M14.9,44.5c-0.5,0-0.9-0.4-0.9-0.9V22.8c0-0.5,0.4-0.9,0.9-0.9c0.5,0,0.9,0.4,0.9,0.9v20.7
						C15.8,44.1,15.4,44.5,14.9,44.5z"/>
					<path class="st0" d="M18.8,44.5c-0.5,0-0.9-0.4-0.9-0.9V22.8c0-0.5,0.4-0.9,0.9-0.9c0.5,0,0.9,0.4,0.9,0.9v20.7
						C19.7,44.1,19.3,44.5,18.8,44.5z"/>
				</g>
			</g>
			<g>
				<path class="st0" d="M37.1,23.7h-6.5c-0.5,0-0.9-0.4-0.9-0.9c0-0.5,0.4-0.9,0.9-0.9h6.5c0.5,0,0.9,0.4,0.9,0.9
					C38,23.3,37.6,23.7,37.1,23.7z"/>
				<path class="st0" d="M37.1,45.3h-6.5c-0.5,0-0.9-0.4-0.9-0.9c0-0.5,0.4-0.9,0.9-0.9h6.5c0.5,0,0.9,0.4,0.9,0.9
					C38,44.9,37.6,45.3,37.1,45.3z"/>
				<g>
					<path class="st0" d="M31.9,44.5c-0.5,0-0.9-0.4-0.9-0.9V22.8c0-0.5,0.4-0.9,0.9-0.9c0.5,0,0.9,0.4,0.9,0.9v20.7
						C32.8,44.1,32.4,44.5,31.9,44.5z"/>
					<path class="st0" d="M35.8,44.5c-0.5,0-0.9-0.4-0.9-0.9V22.8c0-0.5,0.4-0.9,0.9-0.9c0.5,0,0.9,0.4,0.9,0.9v20.7
						C36.7,44.1,36.3,44.5,35.8,44.5z"/>
				</g>
			</g>
			<g>
				<path class="st0" d="M54.1,23.7h-6.5c-0.5,0-0.9-0.4-0.9-0.9c0-0.5,0.4-0.9,0.9-0.9h6.5c0.5,0,0.9,0.4,0.9,0.9
					C55,23.3,54.6,23.7,54.1,23.7z"/>
				<path class="st0" d="M54.1,45.3h-6.5c-0.5,0-0.9-0.4-0.9-0.9c0-0.5,0.4-0.9,0.9-0.9h6.5c0.5,0,0.9,0.4,0.9,0.9
					C55,44.9,54.6,45.3,54.1,45.3z"/>
				<g>
					<path class="st0" d="M48.9,44.5c-0.5,0-0.9-0.4-0.9-0.9V22.8c0-0.5,0.4-0.9,0.9-0.9c0.5,0,0.9,0.4,0.9,0.9v20.7
						C49.8,44.1,49.4,44.5,48.9,44.5z"/>
					<path class="st0" d="M52.8,44.5c-0.5,0-0.9-0.4-0.9-0.9V22.8c0-0.5,0.4-0.9,0.9-0.9c0.5,0,0.9,0.4,0.9,0.9v20.7
						C53.7,44.1,53.3,44.5,52.8,44.5z"/>
				</g>
			</g>
		</g>
		<path class="st0" d="M59.2,52.9H8.5c-0.5,0-0.9-0.4-0.9-0.9c0-0.5,0.4-0.9,0.9-0.9h50.6c0.5,0,0.9,0.4,0.9,0.9
			C60.1,52.5,59.7,52.9,59.2,52.9z"/>
		<path class="st0" d="M64.6,57.2H3.1c-0.5,0-0.9-0.4-0.9-0.9c0-0.5,0.4-0.9,0.9-0.9h61.5c0.5,0,0.9,0.4,0.9,0.9
			C65.5,56.8,65.1,57.2,64.6,57.2z"/>
	</g>
	<path class="st0" d="M60.5,45.8c-0.1,0-0.3,0-0.4-0.1c-0.4-0.2-0.6-0.8-0.4-1.2c2-4,3-8.3,3-12.8c0-15.9-13-28.9-28.9-28.9
		C17.9,2.8,5,15.8,5,31.7c0,4.5,1,8.8,3,12.8c0.2,0.4,0,1-0.4,1.2c-0.4,0.2-1,0-1.2-0.4c-2.1-4.3-3.2-8.9-3.2-13.6
		C3.1,14.8,16.9,1,33.8,1c16.9,0,30.7,13.8,30.7,30.7c0,4.8-1.1,9.4-3.2,13.6C61.2,45.6,60.8,45.8,60.5,45.8z"/>
</g>
<g>
	<path class="st1" d="M89.3,13.5c0,0.4-0.1,0.9-0.2,1.2c0,0,0,0.1-0.1,0.1s-0.1,0-0.1-0.1c-0.1-0.3-0.2-0.6-0.3-0.8
		c-0.1-0.2-0.3-0.4-0.5-0.5c-0.2-0.1-0.5-0.2-0.7-0.3c-0.3,0-0.5-0.1-0.8-0.1h-2.4v11.7c0,0.5,0.2,1,0.5,1.4
		c0.3,0.4,0.8,0.6,1.3,0.7c0,0,0.1,0,0.1,0.1c0,0,0,0.1-0.1,0.1c-0.5,0-0.9-0.1-1.4-0.1c-0.5,0-1,0-1.4,0c-0.3,0-0.7,0-1,0
		c-0.3,0-0.7,0-1,0.1c0,0-0.1,0-0.1-0.1c0,0,0-0.1,0-0.1c0.3-0.1,0.6-0.1,0.8-0.2s0.3-0.2,0.4-0.3c0.1-0.1,0.1-0.3,0.2-0.5
		s0-0.5,0-0.8V13.1H79c-0.4,0-0.8,0.1-1.1,0.4c-0.3,0.3-0.6,0.6-0.7,1c0,0-0.1,0.1-0.1,0c0,0,0,0,0-0.1c0-0.1,0-0.3,0-0.4
		c0-0.3,0-0.5,0.1-0.8c0.1-0.3,0.1-0.5,0.2-0.8c0-0.1,0.1-0.3,0.1-0.4c0-0.1,0.1-0.3,0.1-0.4c0-0.1,0.1-0.1,0.1,0
		c0.3,0.2,0.6,0.3,0.8,0.3c0.3,0,0.6,0.1,0.9,0.1H88c0.1,0,0.2,0,0.4,0c0.1,0,0.2-0.1,0.4-0.1c0.1,0,0.1,0,0.2,0c0.1,0,0.2,0,0.3,0
		c0,0,0.1,0,0.1,0.1v0.2C89.3,12.7,89.3,13.1,89.3,13.5z"/>
	<path class="st1" d="M105,22.9c-0.4,0.9-1,1.7-1.7,2.3c-0.7,0.6-1.5,1.1-2.5,1.5c-0.9,0.4-1.9,0.5-2.9,0.5c-0.6,0-1.1-0.1-1.7-0.3
		s-1.2-0.4-1.8-0.8c-0.6-0.3-1.1-0.7-1.6-1.2c-0.5-0.5-1-0.9-1.4-1.5c-0.4-0.5-0.7-1.1-0.9-1.6c-0.2-0.6-0.3-1.2-0.3-1.7
		c0-1.3,0.1-2.4,0.4-3.4c0.2-0.9,0.6-1.8,1.2-2.4c0.5-0.7,1.3-1.2,2.1-1.6s2-0.8,3.2-1c0.1,0,0.1,0,0.2,0c0.1,0,0.1,0,0.2,0
		c1.2,0,2.2,0.2,3.2,0.6c1,0.4,1.9,1,2.6,1.8c0.7,0.7,1.3,1.6,1.7,2.6c0.4,1,0.6,2.1,0.6,3.3C105.6,21.1,105.4,22,105,22.9z
		 M103.5,17.3c-0.3-0.9-0.7-1.7-1.2-2.4s-1.1-1.3-1.9-1.7c-0.8-0.4-1.6-0.7-2.6-0.7c-0.9,0-1.8,0.2-2.5,0.5
		c-0.7,0.3-1.3,0.8-1.8,1.4c-0.5,0.6-0.9,1.3-1.1,2C92.1,17.3,92,18.1,92,19c0,0.9,0.1,1.8,0.4,2.7c0.3,0.9,0.7,1.7,1.2,2.4
		c0.5,0.7,1.2,1.3,1.9,1.7c0.8,0.4,1.6,0.7,2.6,0.7c0.9,0,1.7-0.2,2.5-0.5c0.7-0.4,1.3-0.8,1.8-1.4c0.5-0.6,0.9-1.3,1.1-2.1
		c0.2-0.8,0.4-1.6,0.4-2.5C103.9,19.1,103.8,18.2,103.5,17.3z"/>
	<path class="st1" d="M126,12.6c-0.2,0.1-0.4,0.3-0.6,0.5c-0.1,0.1-0.2,0.4-0.4,0.9s-0.4,1.1-0.6,1.8c-0.2,0.7-0.4,1.5-0.7,2.3
		c-0.2,0.9-0.5,1.7-0.7,2.6c-0.2,0.6-0.4,1.3-0.6,2c-0.2,0.7-0.4,1.3-0.5,1.9c-0.2,0.6-0.3,1.1-0.5,1.6c-0.2,0.5-0.3,0.8-0.4,1.1
		c0,0,0,0-0.1,0c0,0,0,0-0.1,0c-0.6-1.2-1.2-2.5-1.7-3.8c-0.5-1.3-0.9-2.6-1.4-3.9c-0.2-0.7-0.4-1.4-0.7-2c-0.2-0.6-0.5-1.3-0.7-2
		c-0.4,0.9-0.8,1.8-1.1,2.7c-0.3,0.9-0.7,1.8-1,2.7c-0.2,0.4-0.4,0.9-0.6,1.5c-0.2,0.5-0.4,1.1-0.6,1.7c-0.2,0.6-0.4,1.1-0.6,1.7
		c-0.2,0.5-0.4,1-0.6,1.5c0,0-0.1,0.1-0.1,0c0,0-0.1,0-0.1-0.1c-0.1-0.3-0.2-0.7-0.3-1.2c-0.1-0.4-0.2-0.9-0.4-1.4
		c-0.1-0.5-0.2-1-0.4-1.5s-0.2-1.1-0.3-1.6c-0.2-0.8-0.3-1.5-0.5-2.3c-0.2-0.8-0.3-1.5-0.5-2.2c-0.2-0.7-0.4-1.3-0.5-1.9
		c-0.2-0.6-0.4-1-0.6-1.4c-0.1-0.2-0.2-0.4-0.3-0.5c-0.1-0.1-0.2-0.3-0.3-0.4c-0.1-0.1-0.2-0.2-0.3-0.2c-0.1-0.1-0.3-0.1-0.4-0.2
		c-0.1,0-0.1-0.1-0.2-0.1s-0.2-0.1-0.3-0.1c0,0,0-0.1,0-0.1c0,0,0,0,0.1,0c0.1,0,0.1,0,0.2,0c0.1,0,0.1,0,0.2,0
		c0.4,0,0.8,0.1,1.2,0.1c0.4,0,0.8,0.1,1.2,0.1c0.4,0,0.7,0,1.1,0c0.4,0,0.7-0.1,1.1-0.1c0,0,0.1,0,0.1,0.1c0,0.1,0,0.1,0,0.1
		c-0.2,0.1-0.4,0.2-0.6,0.3c-0.2,0.1-0.4,0.2-0.5,0.4c0.1,1.3,0.3,2.5,0.6,3.8c0.2,1.3,0.5,2.6,0.8,3.8c0.1,0.5,0.2,1.1,0.3,1.6
		s0.2,1.1,0.3,1.6c0.7-1.9,1.5-3.9,2.2-5.8c0.7-2,1.5-3.9,2.3-5.8c0,0,0,0,0.1-0.1c0,0,0.1,0,0.1,0c0.6,1.3,1.2,2.6,1.7,4
		c0.5,1.4,0.9,2.7,1.4,4.1c0.2,0.6,0.4,1.2,0.6,1.8c0.2,0.6,0.4,1.2,0.6,1.8c0.2-0.8,0.5-1.6,0.8-2.5s0.5-1.9,0.8-2.9
		c0.2-1,0.4-1.9,0.6-2.9c0.2-0.9,0.2-1.8,0.2-2.5c0-0.1,0-0.2-0.1-0.3c-0.1-0.1-0.2-0.2-0.3-0.2c-0.1-0.1-0.3-0.1-0.4-0.2
		s-0.2-0.1-0.3-0.1c0,0-0.1,0-0.1-0.1c0-0.1,0-0.1,0.1-0.1c0.4,0,0.9,0.1,1.3,0.1c0.4,0,0.9,0,1.3,0c0.3,0,0.5,0,0.8,0s0.5,0,0.8,0
		v0.2C126.5,12.4,126.2,12.5,126,12.6z"/>
	<path class="st1" d="M143.4,12.4C143.3,12.4,143.3,12.4,143.4,12.4c-0.2,0.1-0.3,0.1-0.5,0.1c-0.1,0-0.3,0.1-0.4,0.1
		c-0.1,0.1-0.2,0.1-0.3,0.2c-0.1,0.1-0.1,0.2-0.1,0.3c0,0.5,0,1.1,0,1.6c0,0.5,0,1.1,0,1.6c0,0.5,0,1.1,0,1.6c0,0.5,0,1.1,0,1.6
		c0,1.2,0,2.4-0.1,3.6s-0.1,2.4-0.2,3.6c0,0,0,0.1,0,0.1s-0.1,0-0.1,0c-1.8-1.6-3.5-3.2-5.2-5s-3.2-3.6-4.8-5.4
		c-0.3-0.3-0.5-0.6-0.7-0.8c-0.2-0.2-0.4-0.5-0.7-0.8c0,0.3,0,0.5-0.1,0.7c0,0.2,0,0.5,0,0.7c0,0.7,0,1.4,0,2c0,0.7,0.1,1.4,0.1,2.1
		c0,0.7,0.1,1.4,0.1,2.1c0,0.7,0,1.4,0,2.1c0,0.3,0,0.6,0.1,0.8c0,0.2,0.1,0.3,0.2,0.4c0.1,0.1,0.2,0.2,0.3,0.2
		c0.1,0,0.2,0.1,0.4,0.1c0.1,0,0.3,0.1,0.5,0.1s0.3,0.1,0.5,0.3c0,0,0,0.1,0,0.1c0,0,0,0.1-0.1,0.1c-0.2,0-0.4,0-0.6,0
		c-0.2,0-0.4,0-0.6-0.1c-0.2,0-0.5,0-0.7-0.1c-0.2,0-0.5,0-0.8,0c-0.3,0-0.7,0-1,0.1c-0.3,0-0.7,0.1-1,0.1c0,0,0,0-0.1,0
		c0,0,0-0.1,0-0.1c0.1-0.1,0.3-0.2,0.4-0.3s0.2-0.1,0.3-0.2c0.1-0.1,0.2-0.1,0.3-0.2c0.1-0.1,0.2-0.1,0.3-0.2
		c0.1-0.1,0.1-0.2,0.2-0.4c0-0.2,0.1-0.3,0.1-0.6c0-0.1,0-0.3,0-0.6c0-0.3,0-0.6,0-0.9c0-0.7,0-1.6,0-2.7c0-1,0-2.1,0-3.2
		c0-0.7,0-1.4,0-2.1c0-0.7,0-1.3,0-1.8s0-1,0.1-1.3c0-0.3,0.1-0.5,0.2-0.6c0.1,0,0.1,0,0.1,0c2,2,3.9,4,5.8,6.1
		c1.9,2,3.7,4.1,5.6,6.2v-0.2c0-1.7,0-3.3-0.1-5c0-1.7-0.1-3.3-0.1-5c0-0.3,0-0.6-0.1-0.8c-0.1-0.2-0.2-0.3-0.3-0.4
		s-0.2-0.2-0.4-0.2c-0.1,0-0.3-0.1-0.4-0.1c-0.1,0-0.2,0-0.4-0.1c-0.1,0-0.2-0.1-0.3-0.1c0,0,0-0.1,0-0.1c0,0,0.1,0,0.1,0
		c0.4,0,0.8,0.1,1.2,0.1c0.4,0,0.8,0.1,1.2,0l0.7-0.1c0.1,0,0.3,0,0.4-0.1s0.3,0,0.4,0c0.1,0,0.2,0,0.3,0c0.1,0,0.2,0,0.2,0
		L143.4,12.4C143.4,12.4,143.4,12.4,143.4,12.4z"/>
	<path class="st1" d="M164,22.9c-0.4,0.9-1,1.7-1.7,2.3c-0.7,0.6-1.5,1.1-2.5,1.5c-0.9,0.4-1.9,0.5-2.9,0.5c-0.6,0-1.1-0.1-1.7-0.3
		s-1.2-0.4-1.8-0.8c-0.6-0.3-1.1-0.7-1.6-1.2c-0.5-0.5-1-0.9-1.4-1.5s-0.7-1.1-0.9-1.6c-0.2-0.6-0.3-1.2-0.3-1.7
		c0-1.3,0.1-2.4,0.4-3.4s0.6-1.8,1.2-2.4c0.5-0.7,1.3-1.2,2.1-1.6s2-0.8,3.2-1c0.1,0,0.1,0,0.2,0c0.1,0,0.1,0,0.2,0
		c1.2,0,2.2,0.2,3.2,0.6c1,0.4,1.9,1,2.6,1.8s1.3,1.6,1.7,2.6c0.4,1,0.6,2.1,0.6,3.3C164.7,21.1,164.5,22,164,22.9z M162.5,17.3
		c-0.3-0.9-0.7-1.7-1.2-2.4c-0.5-0.7-1.2-1.3-1.9-1.7c-0.8-0.4-1.6-0.7-2.6-0.7c-0.9,0-1.8,0.2-2.5,0.5c-0.7,0.3-1.3,0.8-1.8,1.4
		c-0.5,0.6-0.9,1.3-1.1,2c-0.3,0.8-0.4,1.6-0.4,2.5c0,0.9,0.1,1.8,0.4,2.7c0.3,0.9,0.7,1.7,1.2,2.4c0.5,0.7,1.2,1.3,1.9,1.7
		s1.6,0.7,2.6,0.7c0.9,0,1.7-0.2,2.5-0.5c0.7-0.4,1.3-0.8,1.8-1.4c0.5-0.6,0.9-1.3,1.1-2.1c0.2-0.8,0.4-1.6,0.4-2.5
		C162.9,19.1,162.8,18.2,162.5,17.3z"/>
	<path class="st1" d="M174.2,12.4c-0.1,0.4-0.1,0.8-0.2,1.1c-0.1,0.4-0.2,0.8-0.2,1.1c0,0,0,0.1-0.1,0c0,0-0.1,0-0.1-0.1
		c0-0.6-0.2-1-0.5-1.3c-0.3-0.2-0.8-0.4-1.4-0.4c-0.2,0-0.5,0-0.7,0c-0.2,0-0.5,0.1-0.7,0.1h0c-0.2,0-0.4,0.1-0.6,0.1
		c-0.2,0-0.4,0-0.6,0v5.4h3.7c0.1,0,0.3-0.1,0.5-0.2c0.2-0.1,0.3-0.2,0.4-0.3c0,0,0.1,0,0.1,0s0,0,0,0.1c0,0.5-0.1,1-0.1,1.5
		c-0.1,0.5-0.2,1-0.3,1.4c0,0,0,0.1-0.1,0c0,0-0.1,0-0.1-0.1c0-0.6-0.1-1-0.5-1.3s-0.8-0.4-1.3-0.4h-2.3v5.4c0,0.2,0,0.5,0.1,0.7
		c0.1,0.2,0.2,0.4,0.4,0.6c0.2,0.2,0.3,0.3,0.6,0.4c0.2,0.1,0.5,0.2,0.7,0.2V27h-0.2c-0.2,0-0.4,0-0.6,0c-0.2,0-0.4,0-0.6-0.1
		c-0.4,0-0.8-0.1-1.1-0.1c-0.2,0-0.4,0-0.5,0c-0.2,0-0.3,0-0.5,0.1c-0.4,0-0.8,0.1-1.2,0.1h-0.3c0,0-0.1,0-0.1-0.1c0,0,0-0.1,0-0.1
		c0.3-0.1,0.6-0.1,0.8-0.2c0.2-0.1,0.3-0.2,0.4-0.3c0.1-0.1,0.1-0.3,0.1-0.5c0-0.2,0-0.5,0-0.8V13.6c0-0.2,0-0.4-0.1-0.5
		s-0.1-0.2-0.2-0.3s-0.2-0.1-0.3-0.2c-0.1,0-0.2-0.1-0.3-0.1c-0.1,0-0.2-0.1-0.4-0.1c-0.1,0-0.3-0.1-0.5-0.2c0,0-0.1-0.1,0-0.1
		c0,0,0,0,0.1,0c1.2,0,2.4,0.1,3.6,0.1h1.4c0.1,0,0.2,0,0.3,0c0.1,0,0.2,0,0.3,0c0.1,0,0.3,0,0.4,0c0.1,0,0.3,0,0.4,0
		c0.3,0,0.7,0,1-0.1s0.6-0.1,0.9-0.2c0,0,0.1,0,0.1,0c0,0,0,0.1,0,0.1L174.2,12.4z"/>
	<path class="st1" d="M188.7,25.4c0,0.3-0.1,0.6-0.1,1v0l-0.1,0.5c0,0.1,0,0.1-0.1,0.1c0,0,0,0-0.1,0L188,27c-0.4,0-0.9,0-1.3,0
		s-0.9,0-1.3,0c-0.4,0-0.8,0-1.3,0s-0.8,0-1.3,0c-0.4,0-0.9,0-1.3,0s-0.9,0-1.3,0v-0.2c0.3,0,0.5-0.1,0.7-0.2
		c0.2-0.1,0.3-0.3,0.4-0.4c0.1-0.2,0.2-0.4,0.2-0.6c0-0.2,0-0.5,0-0.7V13.6c0-0.2,0-0.4-0.1-0.5c0-0.1-0.1-0.2-0.2-0.3
		c-0.1-0.1-0.2-0.1-0.3-0.1c-0.1,0-0.2-0.1-0.3-0.1c-0.1,0-0.3-0.1-0.4-0.1s-0.3-0.1-0.4-0.2c0,0,0-0.1,0-0.1c0,0,0,0,0.1,0h1.2
		c0.4,0,1,0,1.6,0c0.6,0,1.2,0,1.8,0c0.4,0,0.8,0,1.3,0c0.4,0,0.8,0,1.1,0c0.3,0,0.6,0,0.8-0.1s0.4-0.1,0.5-0.1
		c0.1-0.1,0.1,0,0.1,0.1c0,0.4-0.1,0.7-0.2,1.1c-0.1,0.4-0.2,0.7-0.2,1.1c0,0.1,0,0.1,0,0.2s0,0.1,0,0.2c0,0,0,0.1-0.1,0
		c0,0-0.1,0-0.1-0.1c-0.1-0.7-0.3-1.1-0.7-1.3c-0.4-0.2-0.9-0.3-1.5-0.3h-2.1v5.7h3.1c0.1,0,0.2,0,0.3-0.1c0.1-0.1,0.3-0.1,0.4-0.2
		c0.1-0.1,0.2-0.1,0.3-0.1c0.1,0,0.2-0.1,0.3-0.1c0.1,0,0.1,0,0.1,0.1c0,0.2-0.1,0.4-0.1,0.6c0,0.2-0.1,0.4-0.1,0.6
		c0,0.3-0.1,0.5-0.1,0.8c0,0.2-0.1,0.5-0.1,0.8c0,0,0,0.1,0,0.1c0,0-0.1,0-0.1,0c-0.1-0.1-0.1-0.2-0.2-0.3s-0.1-0.2-0.1-0.3
		c0-0.1-0.1-0.2-0.1-0.3s-0.1-0.2-0.2-0.3c-0.1-0.1-0.2-0.2-0.5-0.2c-0.2-0.1-0.5-0.1-0.8-0.1c-0.3,0-0.6,0-0.9,0
		c-0.3,0-0.5,0-0.6,0h-0.8V25c0.1,0.2,0.3,0.4,0.5,0.6s0.4,0.3,0.7,0.4c0.2,0.1,0.5,0.2,0.7,0.2c0.3,0.1,0.5,0.1,0.7,0.1
		c0.6,0,1.2-0.2,1.6-0.5s0.8-0.8,0.9-1.4l0.1,0C188.8,24.7,188.7,25,188.7,25.4z"/>
	<path class="st1" d="M203.9,20.2c-0.3,0.2-0.4,0.4-0.4,0.8V26c0,0,0,0,0,0.1c-0.3,0.2-0.7,0.4-1,0.6s-0.8,0.3-1.2,0.3
		c-0.4,0.1-0.8,0.1-1.2,0.1c-0.4,0-0.8,0-1.2,0c-0.6,0-1.2,0-1.8-0.1c-1.1-0.1-2-0.3-2.8-0.8s-1.6-1-2.2-1.8c-0.6-0.7-1-1.6-1.4-2.5
		s-0.5-1.9-0.5-2.9c0-1.2,0.2-2.2,0.6-3.2c0.4-0.9,1-1.7,1.8-2.3s1.6-1.1,2.6-1.4c1-0.3,2-0.5,3.2-0.5c0.6,0,1.2,0,1.8,0.1
		c0.6,0.1,1.2,0.1,1.8,0.2c0.3,0,0.5,0.1,0.8,0.1c0.3,0,0.5,0.1,0.8,0.1c0.1,0,0.1,0,0.1,0.1c0,0.5-0.1,1-0.1,1.4
		c-0.1,0.5-0.1,0.9-0.2,1.4c0,0.1,0,0.2,0,0.3c0,0.1,0,0.2,0,0.3c0,0,0,0.1-0.1,0.1s-0.1,0-0.1-0.1c-0.1-0.6-0.3-1.1-0.6-1.5
		c-0.3-0.4-0.6-0.8-1-1c-0.4-0.3-0.9-0.5-1.4-0.6c-0.5-0.1-1-0.2-1.6-0.2c-0.9,0-1.8,0.2-2.6,0.5c-0.8,0.3-1.5,0.7-2.1,1.3
		c-0.6,0.6-1,1.2-1.4,2c-0.3,0.8-0.5,1.6-0.5,2.6c0,1,0.2,2,0.6,2.9s0.9,1.7,1.5,2.4c0.6,0.7,1.4,1.2,2.3,1.6s1.8,0.6,2.9,0.6
		c0.4,0,0.9-0.1,1.3-0.2s0.8-0.3,1.2-0.7v-4.5c0-0.3-0.1-0.5-0.3-0.7s-0.4-0.2-0.7-0.3c-0.1,0-0.2-0.1-0.3-0.1
		c-0.1,0-0.2-0.1-0.3-0.2c0,0-0.1-0.1,0-0.1c0,0,0,0,0.1,0c0.8,0,1.6,0,2.4,0c0.8,0,1.6,0,2.4,0.1l0,0.2
		C204.5,19.9,204.2,20,203.9,20.2z"/>
	<path class="st1" d="M220.1,22.9c-0.4,0.9-1,1.7-1.7,2.3c-0.7,0.6-1.5,1.1-2.5,1.5c-0.9,0.4-1.9,0.5-2.9,0.5
		c-0.6,0-1.1-0.1-1.7-0.3s-1.2-0.4-1.8-0.8c-0.6-0.3-1.1-0.7-1.6-1.2c-0.5-0.5-1-0.9-1.4-1.5s-0.7-1.1-0.9-1.6
		c-0.2-0.6-0.3-1.2-0.3-1.7c0-1.3,0.1-2.4,0.4-3.4s0.6-1.8,1.2-2.4c0.5-0.7,1.3-1.2,2.1-1.6s2-0.8,3.2-1c0.1,0,0.1,0,0.2,0
		c0.1,0,0.1,0,0.2,0c1.2,0,2.2,0.2,3.2,0.6c1,0.4,1.9,1,2.6,1.8s1.3,1.6,1.7,2.6c0.4,1,0.6,2.1,0.6,3.3
		C220.8,21.1,220.5,22,220.1,22.9z M218.6,17.3c-0.3-0.9-0.7-1.7-1.2-2.4c-0.5-0.7-1.2-1.3-1.9-1.7c-0.8-0.4-1.6-0.7-2.6-0.7
		c-0.9,0-1.8,0.2-2.5,0.5c-0.7,0.3-1.3,0.8-1.8,1.4c-0.5,0.6-0.9,1.3-1.1,2c-0.3,0.8-0.4,1.6-0.4,2.5c0,0.9,0.1,1.8,0.4,2.7
		c0.3,0.9,0.7,1.7,1.2,2.4c0.5,0.7,1.2,1.3,1.9,1.7s1.6,0.7,2.6,0.7c0.9,0,1.7-0.2,2.5-0.5c0.7-0.4,1.3-0.8,1.8-1.4
		c0.5-0.6,0.9-1.3,1.1-2.1c0.2-0.8,0.4-1.6,0.4-2.5C219,19.1,218.9,18.2,218.6,17.3z"/>
	<path class="st1" d="M237.1,12.4c-0.1,0-0.1,0-0.2,0c-0.2,0-0.3,0.1-0.5,0.1c-0.2,0.1-0.3,0.2-0.5,0.3c-0.1,0.1-0.2,0.3-0.3,0.6
		c-0.2,0.3-0.3,0.7-0.5,1.2c-0.2,0.5-0.5,1-0.7,1.6s-0.5,1.3-0.8,2s-0.6,1.4-0.9,2.1c-0.3,0.7-0.6,1.4-0.9,2.1
		c-0.2,0.5-0.4,1-0.7,1.5c-0.2,0.5-0.4,1-0.6,1.4c-0.2,0.4-0.3,0.8-0.5,1.1c-0.1,0.3-0.3,0.6-0.3,0.7c0,0,0,0-0.1,0s-0.1,0-0.1,0
		c-0.7-1.2-1.3-2.5-1.8-3.7c-0.5-1.3-1-2.5-1.5-3.8c-0.2-0.5-0.4-1-0.6-1.5c-0.2-0.5-0.4-1-0.6-1.5c0-0.1-0.1-0.2-0.1-0.3
		s-0.1-0.2-0.1-0.3c-0.2-0.5-0.4-1-0.6-1.5c-0.2-0.5-0.5-1-0.7-1.3c-0.1-0.2-0.3-0.4-0.5-0.5c-0.2-0.1-0.4-0.1-0.6-0.2
		c-0.1,0-0.2-0.1-0.3-0.1c-0.1,0-0.3-0.1-0.5-0.2c0,0-0.1-0.1,0-0.1c0,0,0,0,0.1,0c0.3,0,0.5,0,0.8,0c0.3,0,0.5,0,0.8,0
		c0.5,0,0.9,0,1.4,0.1s0.9,0,1.4,0h0.6c0,0,0,0,0.1,0.1c0,0,0,0.1,0,0.1c-0.1,0-0.2,0-0.3,0.1s-0.2,0.1-0.3,0.1s-0.2,0.1-0.3,0.1
		c-0.1,0.1-0.1,0.1-0.1,0.2c0,0.2,0.1,0.4,0.2,0.8s0.2,0.8,0.4,1.3c0.2,0.5,0.4,1,0.6,1.6c0.2,0.6,0.5,1.2,0.7,1.8
		c0.2,0.6,0.5,1.2,0.7,1.8c0.2,0.6,0.5,1.2,0.7,1.7c0.2,0.5,0.4,1,0.6,1.3c0.1,0.4,0.3,0.7,0.4,0.9c0.1-0.3,0.2-0.6,0.4-0.9
		c0.1-0.3,0.3-0.6,0.4-1c0.3-0.8,0.7-1.6,1.1-2.5c0.4-0.9,0.8-1.8,1.1-2.7c0.3-0.9,0.6-1.7,0.9-2.4c0.2-0.7,0.3-1.3,0.3-1.8
		c0-0.1,0-0.2-0.1-0.2c-0.1-0.1-0.2-0.1-0.3-0.2c-0.1,0-0.2-0.1-0.4-0.1c-0.1,0-0.2-0.1-0.3-0.1c0,0-0.1,0-0.1-0.1s0-0.1,0.1-0.1
		c0.3,0,0.7,0.1,1,0.1c0.3,0,0.7,0,1,0s0.7,0,1.1,0c0.4,0,0.7-0.1,1.1-0.1l0,0.2C237.2,12.3,237.2,12.4,237.1,12.4z"/>
	<path class="st1" d="M250.5,13.5c0,0.4-0.1,0.9-0.2,1.2c0,0,0,0.1-0.1,0.1s-0.1,0-0.1-0.1c-0.1-0.3-0.2-0.6-0.3-0.8
		c-0.1-0.2-0.3-0.4-0.5-0.5c-0.2-0.1-0.5-0.2-0.7-0.3c-0.3,0-0.5-0.1-0.8-0.1h-2.4v11.7c0,0.5,0.2,1,0.5,1.4
		c0.3,0.4,0.8,0.6,1.3,0.7c0,0,0.1,0,0,0.1s0,0.1-0.1,0.1c-0.5,0-0.9-0.1-1.4-0.1c-0.5,0-1,0-1.4,0c-0.3,0-0.7,0-1,0
		c-0.3,0-0.7,0-1,0.1c0,0-0.1,0-0.1-0.1s0-0.1,0.1-0.1c0.3-0.1,0.6-0.1,0.8-0.2c0.2-0.1,0.3-0.2,0.4-0.3c0.1-0.1,0.1-0.3,0.2-0.5
		s0-0.5,0-0.8V13.1h-3.3c-0.4,0-0.8,0.1-1.1,0.4c-0.3,0.3-0.6,0.6-0.7,1c0,0-0.1,0.1-0.1,0c0,0,0,0,0-0.1c0-0.1,0-0.3,0-0.4
		c0-0.3,0-0.5,0.1-0.8c0.1-0.3,0.1-0.5,0.2-0.8c0-0.1,0.1-0.3,0.1-0.4c0-0.1,0.1-0.3,0.1-0.4c0-0.1,0.1-0.1,0.1,0
		c0.3,0.2,0.6,0.3,0.8,0.3c0.3,0,0.6,0.1,0.9,0.1h8.7c0.1,0,0.2,0,0.4,0c0.1,0,0.2-0.1,0.3-0.1c0.1,0,0.1,0,0.2,0c0.1,0,0.2,0,0.3,0
		c0,0,0.1,0,0.1,0.1v0.2C250.5,12.7,250.5,13.1,250.5,13.5z"/>
</g>
<g>
	<path class="st2" d="M113.8,45.6c0,0.3-0.1,0.6-0.1,0.8v0l-0.1,0.4c0,0,0,0.1-0.1,0.1c0,0,0,0-0.1,0l-0.3,0.1c-0.4,0-0.7,0-1.1,0
		s-0.7,0-1.1,0c-0.4,0-0.7,0-1.1,0c-0.4,0-0.7,0-1.1,0s-0.7,0-1.1,0c-0.4,0-0.7,0-1.1,0v-0.1c0.2,0,0.4-0.1,0.6-0.2
		c0.1-0.1,0.3-0.2,0.3-0.4c0.1-0.2,0.1-0.3,0.2-0.5s0-0.4,0-0.6v-9.6c0-0.2,0-0.3-0.1-0.4c0-0.1-0.1-0.2-0.2-0.2
		c-0.1-0.1-0.1-0.1-0.2-0.1c-0.1,0-0.2-0.1-0.3-0.1c-0.1,0-0.2-0.1-0.3-0.1c-0.1,0-0.2-0.1-0.3-0.2c0,0,0,0,0-0.1c0,0,0,0,0.1,0h1
		c0.4,0,0.8,0,1.3,0c0.5,0,1,0,1.5,0c0.4,0,0.7,0,1.1,0s0.7,0,0.9,0c0.3,0,0.5,0,0.7-0.1c0.2,0,0.3-0.1,0.4-0.1c0.1,0,0.1,0,0.1,0.1
		c0,0.3-0.1,0.6-0.1,1c-0.1,0.3-0.1,0.6-0.2,0.9c0,0.1,0,0.1,0,0.1c0,0,0,0.1,0,0.1c0,0,0,0-0.1,0s-0.1,0-0.1-0.1
		c0-0.6-0.2-0.9-0.6-1.1s-0.7-0.3-1.3-0.3h-1.8v4.8h2.7c0.1,0,0.2,0,0.3-0.1c0.1-0.1,0.2-0.1,0.4-0.2c0.1,0,0.2-0.1,0.3-0.1
		c0.1,0,0.2-0.1,0.3-0.1c0.1,0,0.1,0,0.1,0.1c0,0.2,0,0.4-0.1,0.5c0,0.2,0,0.4-0.1,0.5c0,0.2-0.1,0.4-0.1,0.7s-0.1,0.4-0.1,0.6
		c0,0,0,0.1,0,0.1c0,0-0.1,0-0.1,0c-0.1-0.1-0.1-0.1-0.1-0.2s-0.1-0.2-0.1-0.3c0-0.1-0.1-0.2-0.1-0.3c0-0.1-0.1-0.2-0.2-0.3
		c-0.1-0.1-0.2-0.1-0.4-0.2c-0.2,0-0.4-0.1-0.7-0.1c-0.2,0-0.5,0-0.7,0c-0.2,0-0.4,0-0.5,0h-0.7v4.7c0.1,0.2,0.3,0.4,0.4,0.5
		c0.2,0.1,0.4,0.3,0.6,0.3c0.2,0.1,0.4,0.2,0.6,0.2c0.2,0,0.4,0.1,0.6,0.1c0.5,0,1-0.1,1.4-0.4s0.6-0.7,0.8-1.2l0.1,0
		C113.9,45.1,113.8,45.3,113.8,45.6z"/>
	<path class="st2" d="M119.2,44.4c-0.2,0.3-0.5,0.6-0.8,0.8c-0.3,0.2-0.7,0.4-1.1,0.5c-0.4,0.1-0.8,0.2-1.1,0.2
		c-0.2,0-0.3,0-0.5-0.1s-0.4-0.1-0.5-0.2c-0.2-0.1-0.3-0.2-0.4-0.3c-0.1-0.1-0.1-0.3-0.1-0.5c0-0.1,0-0.3,0-0.4s0.1-0.3,0.1-0.4
		l0.1-0.4c0,0,0-0.1,0.1-0.1c0,0,0.1,0,0.1,0.1v0.3c0,0.2,0.1,0.4,0.2,0.6s0.2,0.3,0.4,0.5c0.2,0.1,0.3,0.2,0.6,0.3
		c0.2,0.1,0.4,0.1,0.6,0.1c0.2,0,0.4,0,0.6-0.1c0.2-0.1,0.4-0.2,0.6-0.3c0.2-0.1,0.3-0.3,0.4-0.5c0.1-0.2,0.2-0.4,0.2-0.6
		c0-0.2-0.1-0.4-0.2-0.6c-0.1-0.2-0.2-0.4-0.4-0.6c-0.2-0.2-0.4-0.4-0.6-0.6c-0.2-0.2-0.4-0.4-0.7-0.6c-0.2-0.2-0.5-0.5-0.7-0.7
		s-0.4-0.5-0.6-0.7c-0.2-0.2-0.3-0.5-0.4-0.7c-0.1-0.2-0.2-0.5-0.2-0.8c0-0.4,0.1-0.7,0.3-1c0.2-0.3,0.5-0.5,0.8-0.7
		c0.3-0.2,0.7-0.3,1-0.4s0.7-0.1,1-0.1c0.5,0,0.9,0.1,1.2,0.2c0,0,0.1,0,0.1,0.1c0,0.6-0.1,1.1-0.2,1.7c0,0,0,0.1-0.1,0.1
		c0,0-0.1,0-0.1-0.1c-0.1-0.4-0.3-0.7-0.5-1c-0.3-0.3-0.6-0.4-1-0.4c-0.4,0-0.8,0.1-1.1,0.4c-0.3,0.3-0.4,0.6-0.4,1.1
		c0,0.2,0,0.4,0.1,0.6c0.1,0.2,0.2,0.4,0.4,0.6c0.2,0.2,0.3,0.4,0.5,0.5s0.4,0.4,0.6,0.5c0.2,0.2,0.5,0.4,0.7,0.6
		c0.2,0.2,0.4,0.4,0.6,0.7c0.2,0.2,0.3,0.5,0.4,0.7c0.1,0.3,0.2,0.5,0.2,0.9C119.6,43.7,119.5,44,119.2,44.4z"/>
	<path class="st2" d="M128.1,37.2c0,0.3-0.1,0.6-0.1,0.8c0,0,0,0.1-0.1,0.1c0,0,0,0-0.1-0.1c-0.1-0.4-0.3-0.7-0.5-0.8
		c-0.3-0.1-0.6-0.2-0.9-0.2h-1.5v7.3c0,0.3,0.1,0.6,0.3,0.8c0.2,0.2,0.5,0.4,0.8,0.4c0,0,0,0,0,0.1c0,0,0,0.1-0.1,0.1
		c-0.3,0-0.6,0-0.9-0.1c-0.3,0-0.6,0-0.9,0c-0.2,0-0.4,0-0.7,0c-0.2,0-0.4,0-0.7,0.1c0,0-0.1,0-0.1-0.1c0,0,0-0.1,0-0.1
		c0.2,0,0.3-0.1,0.5-0.1c0.1-0.1,0.2-0.1,0.2-0.2c0.1-0.1,0.1-0.2,0.1-0.3c0-0.1,0-0.3,0-0.5v-7.4h-2c-0.3,0-0.5,0.1-0.7,0.3
		c-0.2,0.2-0.4,0.4-0.4,0.6c0,0,0,0-0.1,0c0,0-0.1,0-0.1-0.1l0-0.2c0-0.2,0-0.4,0.1-0.5c0-0.2,0.1-0.3,0.1-0.5c0-0.1,0-0.2,0.1-0.2
		c0-0.1,0-0.1,0.1-0.2c0-0.1,0.1-0.1,0.1,0c0.2,0.1,0.3,0.2,0.5,0.2s0.4,0,0.6,0h5.4c0.1,0,0.3,0,0.5-0.1c0,0,0.1,0,0.1,0
		s0.1,0,0.1,0l0.1,0.1C128.1,36.7,128.1,36.9,128.1,37.2z"/>
	<path class="st2" d="M137.7,45.7c-0.1,0-0.3,0-0.5,0c-0.1,0-0.2,0-0.3,0c-0.1,0-0.2,0-0.3,0c-0.3,0-0.5,0-0.8,0
		c-0.3,0-0.5,0-0.8,0.1c0,0-0.1,0-0.1-0.1c0,0,0-0.1,0-0.1l0.7-0.3c-0.2-0.5-0.4-1.1-0.6-1.6c-0.2-0.5-0.4-1-0.6-1.6h-2.6
		c-0.1,0.1-0.1,0.4-0.2,0.7c-0.1,0.3-0.2,0.6-0.3,0.9s-0.2,0.6-0.3,0.9c-0.1,0.3-0.1,0.5-0.1,0.6c0,0.2,0.1,0.3,0.2,0.3
		c0.1,0.1,0.3,0.1,0.4,0.1v0.1c-0.2,0-0.4,0-0.7-0.1c-0.2,0-0.5,0-0.7,0c-0.2,0-0.5,0-0.7,0c-0.2,0-0.5,0-0.7,0.1c0,0-0.1,0-0.1-0.1
		s0-0.1,0-0.1c0.6-0.1,1.1-0.4,1.3-1v0c0.3-0.8,0.6-1.7,1-2.5s0.6-1.7,0.9-2.5c0.2-0.6,0.4-1.1,0.6-1.7c0.2-0.6,0.4-1.1,0.6-1.7
		c0,0,0-0.1,0.1-0.1c0,0,0.1,0,0.1,0.1c0.1,0.2,0.1,0.3,0.2,0.5c0.1,0.2,0.1,0.3,0.2,0.5c0.5,1.3,0.9,2.5,1.5,3.8
		c0.5,1.3,1.1,2.5,1.7,3.8c0.1,0.3,0.3,0.4,0.5,0.6c0.2,0.1,0.5,0.2,0.7,0.2v0.1C138,45.7,137.9,45.7,137.7,45.7z M133.2,38
		c-0.2,0.6-0.4,1.2-0.6,1.8c-0.2,0.6-0.4,1.2-0.6,1.8h2.2L133.2,38z"/>
	<path class="st2" d="M145.1,44.2c-0.2,0.3-0.4,0.6-0.7,0.9c-0.3,0.2-0.6,0.4-0.9,0.6c-0.4,0.1-0.7,0.2-1.1,0.2c-0.3,0-0.5,0-0.8,0
		c-0.3,0-0.5,0-0.8,0s-0.5,0-0.8,0c-0.3,0-0.5,0-0.8,0c0,0-0.1,0-0.1-0.1c0,0,0-0.1,0-0.1c0.2-0.1,0.3-0.1,0.5-0.2s0.2-0.1,0.2-0.2
		c0.1-0.1,0.1-0.2,0.1-0.3c0-0.1,0-0.3,0-0.5v-7.1c0-0.1,0-0.3,0-0.3s-0.1-0.1-0.1-0.2s-0.1-0.1-0.1-0.1c-0.1,0-0.1,0-0.2,0
		c-0.1,0-0.2,0-0.3-0.1c-0.1,0-0.2-0.1-0.2-0.2c0,0,0,0,0-0.1c0,0,0,0,0.1,0c0.1,0,0.2,0.1,0.4,0.1c0.1,0,0.2,0,0.4,0
		c0.2,0,0.3,0,0.5,0c0.2,0,0.4,0,0.5-0.1c0.2,0,0.3,0,0.5-0.1s0.3,0,0.5,0c0.3,0,0.6,0,0.9,0.1s0.6,0.2,0.8,0.4
		c0.3,0.2,0.5,0.4,0.6,0.6c0.2,0.3,0.2,0.5,0.2,0.9c0,0.4-0.1,0.8-0.3,1.2c-0.2,0.4-0.5,0.7-0.8,0.9c0.6,0.2,1.1,0.5,1.5,1
		c0.4,0.4,0.6,1,0.6,1.6C145.3,43.5,145.2,43.8,145.1,44.2z M143.9,42.2c-0.2-0.3-0.4-0.6-0.7-0.8c-0.3-0.2-0.6-0.4-1-0.5
		c-0.4-0.1-0.8-0.2-1.2-0.2v3.6c0,0.1,0,0.3,0.1,0.4c0.1,0.1,0.2,0.2,0.3,0.3c0.1,0.1,0.3,0.2,0.4,0.2c0.2,0,0.3,0.1,0.4,0.1
		c0.3,0,0.5-0.1,0.7-0.2c0.2-0.1,0.4-0.3,0.6-0.4c0.2-0.2,0.3-0.4,0.4-0.6s0.1-0.5,0.1-0.7C144.2,43,144.1,42.6,143.9,42.2z
		 M143.2,37.9c-0.1-0.2-0.2-0.4-0.3-0.6c-0.1-0.2-0.3-0.3-0.5-0.4c-0.2-0.1-0.4-0.1-0.7-0.1c-0.1,0-0.2,0-0.3,0s-0.2,0.1-0.3,0.1
		v3.4h0.1c0.3,0,0.6,0,0.9-0.1s0.5-0.1,0.7-0.3c0.2-0.1,0.3-0.3,0.4-0.5c0.1-0.2,0.2-0.5,0.2-0.9C143.3,38.3,143.3,38.1,143.2,37.9z
		"/>
	<path class="st2" d="M151.9,44.1c0,0,0,0.1,0,0.1c0,0.2,0,0.5-0.1,0.7s-0.1,0.5-0.2,0.7c0,0,0,0,0,0.1c0,0,0,0.1-0.1,0.1
		c-0.5,0-0.9-0.1-1.4-0.1c-0.4,0-0.9,0-1.4,0c-0.4,0-0.7,0-1.1,0c-0.4,0-0.7,0-1.1,0c-0.1,0-0.1,0-0.2,0c-0.1,0-0.1,0-0.2,0
		c0,0-0.1,0-0.1-0.1c0,0,0-0.1,0.1-0.1c0.1,0,0.2-0.1,0.3-0.1s0.2-0.2,0.3-0.3c0.1-0.1,0.1-0.2,0.2-0.4c0-0.1,0.1-0.3,0.1-0.4v-6.9
		c0-0.3-0.1-0.5-0.3-0.6c-0.2-0.2-0.4-0.2-0.7-0.3v-0.1c0.2,0,0.4,0,0.6,0s0.4,0,0.6,0c0.6,0,1.2,0,1.8-0.1c0,0,0.1,0,0.1,0.1
		c0,0,0,0.1,0,0.1c-0.2,0-0.5,0.2-0.6,0.3c-0.2,0.2-0.3,0.4-0.3,0.6v6.3c0,0.5,0.1,0.8,0.5,1.1s0.7,0.4,1.1,0.4
		c0.4,0,0.8-0.1,1.2-0.4c0.4-0.2,0.6-0.6,0.8-1l0.1,0C151.9,44,151.9,44.1,151.9,44.1z"/>
	<path class="st2" d="M155.3,45.7c-0.2,0-0.4,0-0.6,0c-0.3,0-0.6,0-0.9,0s-0.6,0-0.9,0c0,0-0.1,0-0.1-0.1c0,0,0-0.1,0-0.1
		c0.3-0.1,0.5-0.3,0.6-0.5c0.1-0.2,0.2-0.5,0.2-0.8v-7.1c0-0.3-0.1-0.4-0.3-0.5c-0.2-0.1-0.4-0.2-0.6-0.2c0,0,0,0,0-0.1
		c0,0,0-0.1,0.1-0.1c0.2,0,0.5,0,0.7,0.1c0.2,0,0.5,0,0.7,0c0.2,0,0.5,0,0.7,0c0.2,0,0.5,0,0.7-0.1c0,0,0.1,0,0.1,0.1
		c0,0,0,0.1,0,0.1c-0.3,0.1-0.5,0.1-0.6,0.2c-0.2,0.1-0.2,0.3-0.2,0.6v7c0,0.4,0.1,0.7,0.2,0.9c0.2,0.2,0.5,0.3,0.9,0.3v0.1
		C155.7,45.8,155.5,45.8,155.3,45.7z"/>
	<path class="st2" d="M161.2,44.4c-0.2,0.3-0.5,0.6-0.8,0.8c-0.3,0.2-0.7,0.4-1.1,0.5c-0.4,0.1-0.8,0.2-1.1,0.2
		c-0.2,0-0.3,0-0.5-0.1s-0.4-0.1-0.5-0.2s-0.3-0.2-0.4-0.3c-0.1-0.1-0.1-0.3-0.1-0.5c0-0.1,0-0.3,0-0.4c0-0.1,0.1-0.3,0.1-0.4
		l0.1-0.4c0,0,0-0.1,0.1-0.1s0.1,0,0.1,0.1v0.3c0,0.2,0.1,0.4,0.2,0.6s0.2,0.3,0.4,0.5c0.2,0.1,0.3,0.2,0.6,0.3
		c0.2,0.1,0.4,0.1,0.6,0.1c0.2,0,0.4,0,0.6-0.1c0.2-0.1,0.4-0.2,0.6-0.3c0.2-0.1,0.3-0.3,0.4-0.5c0.1-0.2,0.2-0.4,0.2-0.6
		c0-0.2-0.1-0.4-0.2-0.6c-0.1-0.2-0.2-0.4-0.4-0.6c-0.2-0.2-0.4-0.4-0.6-0.6c-0.2-0.2-0.4-0.4-0.7-0.6c-0.2-0.2-0.5-0.5-0.7-0.7
		s-0.4-0.5-0.6-0.7c-0.2-0.2-0.3-0.5-0.4-0.7c-0.1-0.2-0.2-0.5-0.2-0.8c0-0.4,0.1-0.7,0.3-1c0.2-0.3,0.5-0.5,0.8-0.7
		c0.3-0.2,0.7-0.3,1-0.4s0.7-0.1,1-0.1c0.5,0,0.9,0.1,1.2,0.2c0,0,0.1,0,0.1,0.1c0,0.6-0.1,1.1-0.2,1.7c0,0,0,0.1-0.1,0.1
		c0,0-0.1,0-0.1-0.1c-0.1-0.4-0.3-0.7-0.5-1c-0.3-0.3-0.6-0.4-1-0.4c-0.4,0-0.8,0.1-1.1,0.4c-0.3,0.3-0.4,0.6-0.4,1.1
		c0,0.2,0,0.4,0.1,0.6c0.1,0.2,0.2,0.4,0.4,0.6c0.2,0.2,0.3,0.4,0.5,0.5s0.4,0.4,0.6,0.5c0.2,0.2,0.5,0.4,0.7,0.6
		c0.2,0.2,0.4,0.4,0.6,0.7c0.2,0.2,0.3,0.5,0.4,0.7c0.1,0.3,0.2,0.5,0.2,0.9C161.5,43.7,161.4,44,161.2,44.4z"/>
	<path class="st2" d="M171.9,45.8c-0.6,0-1.2-0.1-1.8-0.1c-0.2,0-0.4,0-0.6,0c-0.2,0-0.4,0-0.7,0c0,0-0.1,0-0.1-0.1c0,0,0-0.1,0-0.1
		c0.4-0.1,0.6-0.2,0.7-0.4c0.1-0.2,0.2-0.4,0.2-0.8v-3.5h-5.2v3.6c0,0.7,0.4,1.1,1.1,1.2c0,0,0.1,0,0.1,0.1s0,0.1-0.1,0.1
		c-0.2,0-0.4,0-0.5,0c-0.2,0-0.3,0-0.5,0c-0.1,0-0.3,0-0.4,0s-0.3,0-0.4,0c-0.1,0-0.3,0-0.4,0c-0.1,0-0.3,0-0.4,0c0,0-0.1,0-0.2,0
		s-0.1,0-0.2,0c0,0-0.1,0-0.1-0.1c0,0,0-0.1,0-0.1c0.2,0,0.3-0.1,0.4-0.1c0.1,0,0.2-0.1,0.3-0.2c0.1-0.1,0.1-0.2,0.1-0.3
		c0-0.1,0-0.3,0-0.4v-7.2c0-0.2-0.1-0.4-0.3-0.6c-0.2-0.1-0.4-0.2-0.6-0.2v-0.1c0.5,0,0.9,0.1,1.4,0.1c0.2,0,0.4,0,0.6,0
		c0.2,0,0.4,0,0.6,0h0.4c0,0,0.1,0,0.1,0.1c0,0,0,0.1-0.1,0.1c-0.2,0-0.4,0.1-0.6,0.2c-0.2,0.1-0.2,0.3-0.2,0.5v3h5.2v-2.9
		c0-0.3-0.1-0.4-0.2-0.5c-0.1-0.1-0.3-0.1-0.5-0.2c0,0-0.1,0-0.1,0c0,0-0.1,0-0.1,0c0,0,0,0,0-0.1c0,0,0-0.1,0.1-0.1
		c0.5,0,1.1,0.1,1.6,0.1c0.2,0,0.5,0,0.7,0c0.2,0,0.5,0,0.7,0c0,0,0.1,0,0.1,0.1c0,0,0,0.1,0,0.1c-0.3,0-0.4,0.1-0.6,0.2
		s-0.2,0.3-0.2,0.6v7c0,0.4,0.1,0.7,0.3,0.9c0.2,0.2,0.4,0.3,0.8,0.4L171.9,45.8z"/>
	<path class="st2" d="M178,44.9c0,0.2-0.1,0.5-0.1,0.8c0,0,0,0.1-0.1,0.1l0,0c-0.1,0-0.2,0.1-0.2,0.1c-0.3,0-0.5,0-0.8,0
		c-0.3,0-0.5,0-0.8,0c-0.2,0-0.4,0-0.7,0c-0.2,0-0.4,0-0.7,0c-0.3,0-0.6,0-0.9,0s-0.6,0-0.9,0v-0.1c0.2,0,0.3,0,0.4-0.1
		c0.1-0.1,0.2-0.2,0.2-0.3c0.1-0.1,0.1-0.2,0.1-0.4c0-0.1,0-0.3,0-0.4v-7.1c0-0.2-0.1-0.4-0.2-0.4c-0.1-0.1-0.2-0.1-0.3-0.2
		c-0.1,0-0.1,0-0.2-0.1s-0.2-0.1-0.3-0.1c0,0,0,0,0-0.1c0,0,0,0,0.1,0h4.8c0,0,0.1,0,0.1-0.1c0.1,0,0.1,0,0.1-0.1
		c0.1,0,0.1,0,0.1,0.1c0,0.3-0.1,0.6-0.1,0.8c-0.1,0.3-0.1,0.5-0.2,0.8c0,0,0,0-0.1,0c0,0-0.1,0-0.1-0.1c0-0.4-0.2-0.7-0.4-0.8
		c-0.3-0.1-0.6-0.2-0.9-0.2h-1.3v3.5h2c0.1,0,0.1,0,0.2-0.1c0.1,0,0.2-0.1,0.3-0.1c0.1-0.1,0.2-0.1,0.4-0.2c0.1,0,0.1,0,0.1,0.1
		c0,0.1,0,0.3,0,0.4c0,0.2,0,0.3-0.1,0.4c0,0.1,0,0.3-0.1,0.4c0,0.1,0,0.3-0.1,0.4c0,0,0,0.1,0,0.1c0,0-0.1,0-0.1,0
		c-0.1-0.1-0.1-0.1-0.1-0.2c0-0.1,0-0.1-0.1-0.2c0-0.1,0-0.1-0.1-0.2c0-0.1-0.1-0.1-0.1-0.2s-0.2-0.1-0.3-0.1
		c-0.2,0-0.3-0.1-0.5-0.1c-0.2,0-0.3,0-0.5,0s-0.3,0-0.4,0h-0.5v3.5c0.2,0.2,0.4,0.4,0.7,0.6s0.6,0.2,0.9,0.2c0.4,0,0.7-0.1,1-0.3
		c0.3-0.2,0.5-0.5,0.6-0.9l0.1,0C178.1,44.4,178.1,44.6,178,44.9z"/>
	<path class="st2" d="M187.9,43.1c-0.3,0.6-0.6,1.1-1.1,1.5s-1,0.7-1.7,0.9s-1.4,0.3-2.2,0.3c-0.3,0-0.6,0-0.9,0
		c-0.3,0-0.6,0-0.9-0.1c-0.3,0-0.7,0-1-0.1c-0.3,0-0.7,0-1,0c0,0-0.1,0-0.1-0.1s0-0.1,0-0.1c0.4-0.1,0.6-0.2,0.7-0.4
		c0.1-0.2,0.1-0.5,0.1-0.8v-7c0-0.3-0.1-0.4-0.2-0.5c-0.1-0.1-0.3-0.1-0.4-0.1c-0.1,0-0.2,0-0.2-0.1c-0.1,0-0.1-0.1-0.2-0.1
		c0-0.1,0-0.1,0.1-0.1c0.1,0,0.3,0,0.4,0s0.3,0,0.4,0c0.2,0,0.4,0,0.6,0c0.2,0,0.4,0,0.6,0c0.2,0,0.5,0,0.7,0c0.2,0,0.5,0,0.7-0.1
		c0.2,0,0.4,0,0.7,0c0.2,0,0.5,0,0.7,0c0.7,0,1.3,0.1,1.8,0.4c0.6,0.2,1,0.6,1.5,1s0.7,0.9,1,1.5c0.2,0.6,0.3,1.2,0.3,1.8
		C188.3,41.8,188.1,42.5,187.9,43.1z M186.8,39.6c-0.2-0.6-0.6-1-1-1.4c-0.4-0.4-0.9-0.7-1.5-0.9s-1.2-0.3-1.9-0.3
		c-0.2,0-0.5,0-0.7,0c-0.2,0-0.4,0.1-0.7,0.2v6.7c0,0.3,0,0.6,0.1,0.8c0.1,0.2,0.2,0.3,0.3,0.4c0.1,0.1,0.3,0.2,0.6,0.2s0.5,0,0.8,0
		c0.6,0,1.2-0.1,1.7-0.2s1-0.4,1.3-0.7c0.4-0.3,0.7-0.7,0.9-1.2s0.3-1.1,0.3-1.7C187.1,40.7,187,40.1,186.8,39.6z"/>
	<path class="st2" d="M197.9,45.9c-0.7,0-1.5,0-2.2,0c-0.7,0-1.5,0-2.2-0.1c0,0-0.1,0-0.1-0.1s0-0.1,0-0.1c0.1,0,0.2,0,0.3-0.1
		c0.1,0,0.2,0,0.3,0c0.1,0,0.3,0,0.4-0.1s0.3-0.1,0.4-0.1c0.1-0.1,0.2-0.2,0.3-0.3c0.1-0.1,0.1-0.3,0.1-0.5v-7.4
		c-0.1-0.1-0.2-0.2-0.4-0.2c-0.1,0-0.2,0-0.3,0.1c-0.1,0.1-0.3,0.1-0.4,0.2c-0.1,0.1-0.3,0.1-0.4,0.2c-0.1,0.1-0.3,0.1-0.4,0.1
		c0,0-0.1,0-0.1,0c0,0,0-0.1,0-0.1c0.5-0.4,1-0.8,1.5-1.1c0.5-0.3,1.1-0.7,1.6-0.9c0.1,0,0.1,0,0.1,0.1c0,0.2,0,0.3,0,0.5
		c0,0.2,0,0.3,0,0.5v0.3c0,0.6,0,1.3,0,1.9s0,1.3,0,1.9c0,0.6,0,1.3,0,1.9c0,0.6,0,1.3,0,1.9c0,0.2,0,0.4,0.1,0.5
		c0.1,0.1,0.1,0.2,0.2,0.3c0.1,0.1,0.2,0.1,0.3,0.1c0.1,0,0.2,0,0.3,0.1c0.1,0,0.3,0,0.4,0.1s0.2,0.1,0.3,0.2L197.9,45.9z"/>
	<path class="st2" d="M203.3,39.3c-0.5,1.1-0.9,2.2-1.3,3.3c-0.1,0.2-0.1,0.4-0.2,0.6c-0.1,0.2-0.1,0.4-0.1,0.6
		c-0.1,0.3-0.1,0.5-0.2,0.8c-0.1,0.2-0.1,0.5-0.2,0.7c0,0.1-0.1,0.2-0.2,0.3s-0.2,0.2-0.4,0.2c-0.1,0.1-0.3,0.1-0.4,0.2
		c-0.1,0.1-0.3,0.1-0.4,0.1c-0.1,0-0.1,0-0.1-0.1c0.1-0.7,0.3-1.4,0.6-2.3c0.3-0.8,0.7-1.6,1-2.4c0.4-0.8,0.8-1.6,1.2-2.4
		s0.8-1.5,1.2-2.1c0,0-0.1,0-0.2,0c-0.1,0-0.3,0-0.4,0c-0.1,0-0.3,0-0.5,0c-0.1,0-0.3,0-0.5,0c-0.2,0-0.4,0-0.5,0
		c-0.3,0-0.7,0-1,0.1c-0.3,0-0.6,0.1-0.9,0.2s-0.5,0.3-0.7,0.5S199,38,199,38.3c0,0,0,0.1,0,0.1c0,0-0.1,0-0.1,0
		c-0.1-0.1-0.1-0.2-0.1-0.3c0-0.1,0-0.2,0-0.3c0-0.2,0-0.4,0-0.7c0-0.2,0.1-0.4,0.1-0.6c0-0.1,0-0.2,0.1-0.3c0-0.1,0-0.2,0-0.3
		c0-0.1,0-0.1,0.1-0.1c0.4,0.1,0.8,0.2,1.3,0.2c0.4,0,0.9,0.1,1.3,0.1c0.3,0,0.6,0,0.9,0c0.3,0,0.6,0,0.8,0c0.3,0,0.5,0,0.8,0
		s0.5,0,0.8,0l0.1,0.1C204.4,37.1,203.8,38.2,203.3,39.3z"/>
	<path class="st2" d="M212.9,41.8c-0.1,0.6-0.4,1.2-0.6,1.7s-0.6,1.1-1.1,1.5c-0.4,0.4-0.9,0.8-1.5,1.1c-0.7,0-1.3-0.2-1.8-0.6
		c-0.5-0.4-0.9-0.8-1.3-1.4c-0.3-0.5-0.6-1.1-0.7-1.8c-0.2-0.6-0.2-1.3-0.2-1.9c0-0.6,0.1-1.2,0.2-1.8c0.2-0.6,0.4-1.1,0.7-1.6
		s0.7-0.8,1.3-1.1c0.5-0.3,1.1-0.4,1.8-0.4c0.6,0,1.1,0.1,1.6,0.4c0.4,0.3,0.8,0.6,1.1,1c0.3,0.4,0.5,0.9,0.6,1.4
		c0.1,0.5,0.2,1,0.2,1.6C213.1,40.6,213.1,41.2,212.9,41.8z M211.7,39.1c-0.1-0.5-0.2-0.9-0.4-1.4c-0.2-0.4-0.5-0.8-0.8-1.1
		c-0.3-0.3-0.8-0.4-1.3-0.4c-0.4,0-0.8,0.1-1.1,0.4c-0.3,0.3-0.5,0.6-0.7,1s-0.3,0.8-0.3,1.3c-0.1,0.4-0.1,0.8-0.1,1.2
		c0,0.5,0.1,1,0.2,1.6c0.1,0.6,0.3,1.1,0.5,1.6c0.2,0.5,0.5,0.9,0.9,1.3c0.4,0.4,0.8,0.7,1.4,0.8c0.4-0.2,0.7-0.5,0.9-0.9
		c0.2-0.4,0.4-0.8,0.6-1.3c0.1-0.5,0.2-1,0.3-1.5s0.1-0.9,0.1-1.3C211.8,40.1,211.7,39.6,211.7,39.1z"/>
	<path class="st2" d="M219.3,37.9C219.3,37.9,219.3,37.9,219.3,37.9c-0.1,0.1-0.1,0-0.1,0c-0.1-0.1-0.1-0.2-0.2-0.4
		c0-0.1-0.1-0.3-0.2-0.4c-0.1-0.1-0.2-0.2-0.5-0.2h-2.9c0,0.3-0.1,0.6-0.1,0.9s0,0.6,0,0.9v0.1c0.6,0,1.1,0.1,1.6,0.3
		s0.9,0.5,1.3,0.8c0.4,0.4,0.6,0.8,0.9,1.3c0.2,0.5,0.3,1,0.3,1.6c0,0.5-0.1,1-0.3,1.4c-0.2,0.4-0.5,0.8-0.9,1.1
		c-0.4,0.3-0.8,0.5-1.2,0.7c-0.5,0.2-0.9,0.2-1.4,0.2c-0.5,0-1.1-0.1-1.6-0.3c0,0-0.1,0-0.1-0.1c0-0.1,0-0.2,0-0.4
		c0-0.1,0-0.3,0-0.4c0-0.2,0-0.5,0-0.7s0.1-0.5,0.1-0.7c0,0,0,0,0.1,0c0,0,0.1,0,0.1,0.1c0,0.3,0,0.5,0.1,0.7
		c0.1,0.2,0.1,0.4,0.3,0.6c0.1,0.2,0.3,0.3,0.5,0.4c0.2,0.1,0.4,0.1,0.7,0.1c0.3,0,0.6-0.1,1-0.2s0.6-0.3,0.9-0.5
		c0.3-0.2,0.5-0.5,0.6-0.7c0.2-0.3,0.2-0.6,0.2-0.9c0-0.5-0.1-0.9-0.3-1.3c-0.2-0.4-0.5-0.7-0.9-1c-0.4-0.3-0.8-0.5-1.2-0.7
		c-0.4-0.2-0.9-0.3-1.3-0.3c0,0-0.1,0-0.1-0.1c0-0.6,0.1-1.2,0.1-1.8c0.1-0.6,0.1-1.2,0.3-1.8c0,0,0-0.1,0.1-0.1h0.4
		c0.7,0,1.3,0,2,0c0.7,0,1.3,0,2-0.1l0.1,0.1C219.5,36.6,219.5,37.3,219.3,37.9z"/>
</g>
</svg>
