<?xml version="1.0" encoding="utf-8"?>
<!-- Generator: Adobe Illustrator 22.1.0, SVG Export Plug-In . SVG Version: 6.00 Build 0)  -->
<svg version="1.1" id="Layer_1" xmlns="http://www.w3.org/2000/svg" xmlns:xlink="http://www.w3.org/1999/xlink" x="0px" y="0px"
	 viewBox="0 0 208 62" style="enable-background:new 0 0 208 62;" xml:space="preserve">
<style type="text/css">
	.st0{fill:#14AFFF;}
	.st1{fill:#FFFFFF;}
</style>
<circle class="st0" cx="31" cy="30.5" r="30"/>
<path class="st1" d="M37.7,49.2c4.2-0.3,8.2-0.4,9.8-1.7c1.7-1.2,0.8-3.6,0.6-4s-0.4-0.8,0.4-1.1c0.9-0.4,1.2-2.3-0.5-2.9
	c1.4-0.5,1.2-2.1,0.3-2.5c-1.6-0.6-1.6-2-1.6-2s1.3-1.7,1.7-2.3c0.4-0.7,0.7-1.2,0.2-1.5c-0.9-0.6-2.2-5.5-4.3-6.7
	c-2.7-1.7-2.2-3-2-4.7c0.2-2.5,0.4-0.7-1.7-3.5c-1.7-2.4-16.8-4.2-19.2-4.8c0,0,1.4,2.4-0.4,2.8c1.2,0,2.6,1.3,0,2.5
	c2.6,1.3,0.8,10.2-2.7,11.8c1,0.5,14.2,2.3,12.4,2.9c0,0,1.7,1.6-0.8,1.7c4.9,7-12.1,12.9-17.8,11.4c1.6,3,6.4,5.1,5.4,2.7
	c-0.6,2.1-2,4.9-3.6,7.6c4.8,3.3,10.5,5.3,16.7,5.3c1.9-4.2,4-8.7,4.3-9.3C35.8,50,36.7,49.4,37.7,49.2z"/>
<g>
	<path class="st1" d="M79.4,21v18.5h-3.5V21h-6.4v-3.1h16.4V21H79.4z"/>
	<path class="st1" d="M94.8,39.9c-1.2,0-2.2-0.2-3.1-0.6c-0.9-0.4-1.7-1-2.3-1.7c-0.6-0.7-1.1-1.6-1.5-2.7c-0.3-1-0.5-2.2-0.5-3.5
		s0.2-2.4,0.5-3.5c0.3-1,0.8-1.9,1.5-2.7c0.6-0.7,1.4-1.3,2.3-1.7c0.9-0.4,1.9-0.6,3.1-0.6s2.2,0.2,3.1,0.6s1.6,1,2.2,1.7
		s1,1.6,1.3,2.6s0.5,2,0.5,3.1v1.3H90.8v0.5c0,1.2,0.4,2.2,1.1,3s1.8,1.2,3.1,1.2c1,0,1.8-0.2,2.5-0.6c0.7-0.4,1.3-1,1.7-1.8l2,2
		c-0.6,1-1.5,1.8-2.6,2.4C97.6,39.6,96.3,39.9,94.8,39.9z M94.8,25.7c-0.6,0-1.1,0.1-1.6,0.3c-0.5,0.2-0.9,0.5-1.2,0.9
		c-0.3,0.4-0.6,0.8-0.8,1.3c-0.2,0.5-0.3,1.1-0.3,1.7v0.2h7.5v-0.3c0-1.2-0.3-2.2-1-3C96.7,26,95.9,25.7,94.8,25.7z"/>
	<path class="st1" d="M103.2,39.5l5.7-8.2l-5.5-8h3.9l3.6,5.6h0.1l3.7-5.6h3.6l-5.5,7.9l5.6,8.2h-3.9l-3.7-5.9h-0.1l-3.9,5.9h-3.6
		V39.5z"/>
	<path class="st1" d="M127.2,39.9c-1.1,0-2.1-0.2-3.1-0.6c-0.9-0.4-1.7-1-2.3-1.7c-0.6-0.7-1.1-1.6-1.5-2.7c-0.4-1-0.5-2.2-0.5-3.5
		s0.2-2.4,0.5-3.5c0.4-1,0.8-1.9,1.5-2.7c0.6-0.7,1.4-1.3,2.3-1.7c0.9-0.4,1.9-0.6,3.1-0.6s2.1,0.2,3.1,0.6c0.9,0.4,1.7,1,2.3,1.7
		s1.1,1.6,1.5,2.7s0.5,2.2,0.5,3.5s-0.2,2.4-0.5,3.5s-0.8,1.9-1.5,2.7c-0.6,0.7-1.4,1.3-2.3,1.7C129.3,39.7,128.3,39.9,127.2,39.9z
		 M127.2,37.1c1.2,0,2.1-0.4,2.8-1.1c0.7-0.7,1.1-1.8,1.1-3.2v-2.7c0-1.4-0.4-2.5-1.1-3.2c-0.7-0.7-1.6-1.1-2.8-1.1
		s-2.1,0.4-2.8,1.1c-0.7,0.7-1.1,1.8-1.1,3.2v2.7c0,1.4,0.4,2.5,1.1,3.2C125.1,36.7,126,37.1,127.2,37.1z"/>
	<path class="st1" d="M142.8,39.9c-1.5,0-2.8-0.3-3.8-0.8s-1.9-1.3-2.7-2.2l2.2-2c0.6,0.7,1.3,1.3,2,1.7s1.6,0.6,2.6,0.6
		s1.7-0.2,2.2-0.6c0.5-0.4,0.7-0.9,0.7-1.6c0-0.5-0.2-1-0.5-1.3c-0.3-0.4-0.9-0.6-1.8-0.7l-1.5-0.2c-1.7-0.2-3-0.7-3.9-1.4
		s-1.4-1.9-1.4-3.4c0-0.8,0.1-1.5,0.4-2.1c0.3-0.6,0.7-1.1,1.2-1.5s1.2-0.7,1.9-1c0.7-0.2,1.5-0.3,2.4-0.3c1.4,0,2.6,0.2,3.5,0.7
		s1.7,1.1,2.5,1.9l-2.1,2c-0.4-0.5-1-0.9-1.6-1.3c-0.7-0.4-1.4-0.5-2.3-0.5c-0.9,0-1.6,0.2-2.1,0.6c-0.4,0.4-0.7,0.9-0.7,1.5
		s0.2,1.1,0.6,1.4s1,0.5,1.9,0.7l1.5,0.2c1.8,0.3,3.1,0.8,3.9,1.6s1.2,1.8,1.2,3.1c0,0.8-0.2,1.5-0.4,2.1c-0.3,0.6-0.7,1.2-1.3,1.6
		c-0.6,0.5-1.2,0.8-2,1.1S143.8,39.9,142.8,39.9z"/>
	<path class="st1" d="M154.5,39.9c-0.8,0-1.3-0.2-1.7-0.6s-0.6-0.9-0.6-1.5v-0.5c0-0.6,0.2-1.1,0.6-1.5c0.4-0.4,0.9-0.6,1.7-0.6
		s1.3,0.2,1.7,0.6c0.4,0.4,0.6,0.9,0.6,1.5v0.5c0,0.6-0.2,1.1-0.6,1.5S155.3,39.9,154.5,39.9z"/>
	<path class="st1" d="M174.9,41c0,1.7-0.6,2.9-1.9,3.8s-3.4,1.3-6.3,1.3c-1.3,0-2.4-0.1-3.4-0.3c-0.9-0.2-1.7-0.4-2.3-0.8
		s-1-0.7-1.3-1.2s-0.4-1-0.4-1.6c0-0.9,0.2-1.6,0.7-2.1s1.2-0.8,2-1v-0.3c-1.2-0.4-1.8-1.2-1.8-2.5c0-0.8,0.3-1.5,0.8-1.9
		c0.6-0.4,1.2-0.8,2-0.9v-0.1c-1-0.5-1.7-1.1-2.2-1.9c-0.5-0.8-0.8-1.8-0.8-2.9c0-1.7,0.6-3,1.7-4c1.1-1,2.7-1.5,4.8-1.5
		c1.1,0,2.1,0.2,2.9,0.5v-0.4c0-0.7,0.2-1.3,0.5-1.7c0.3-0.4,0.9-0.6,1.6-0.6h2.5v2.7h-3.3v0.7c0.7,0.5,1.3,1.1,1.7,1.8
		c0.4,0.8,0.6,1.6,0.6,2.5c0,1.6-0.6,3-1.7,4c-1.1,1-2.7,1.5-4.8,1.5c-0.8,0-1.5-0.1-2.1-0.2c-0.4,0.1-0.8,0.3-1.1,0.6
		s-0.5,0.6-0.5,1s0.2,0.7,0.6,0.9c0.4,0.2,1,0.3,1.7,0.3h4c2,0,3.4,0.4,4.3,1.2C174.5,38.6,174.9,39.6,174.9,41z M171.8,41.4
		c0-0.6-0.2-1-0.6-1.3c-0.4-0.3-1.2-0.5-2.3-0.5h-5.5c-0.7,0.4-1.1,1.1-1.1,1.9c0,0.7,0.3,1.2,0.8,1.6c0.5,0.4,1.4,0.6,2.7,0.6h2.1
		C170.4,43.6,171.8,42.9,171.8,41.4z M166.7,31.5c1,0,1.8-0.2,2.3-0.7s0.8-1.1,0.8-2.1v-0.6c0-0.9-0.3-1.6-0.8-2.1
		c-0.5-0.4-1.3-0.7-2.3-0.7s-1.8,0.2-2.3,0.7c-0.5,0.4-0.8,1.1-0.8,2.1v0.6c0,0.9,0.3,1.6,0.8,2.1S165.7,31.5,166.7,31.5z"/>
	<path class="st1" d="M183.1,39.9c-1.1,0-2.1-0.2-3.1-0.6c-0.9-0.4-1.7-1-2.3-1.7s-1.1-1.6-1.5-2.7c-0.4-1-0.5-2.2-0.5-3.5
		s0.2-2.4,0.5-3.5c0.4-1,0.8-1.9,1.5-2.7c0.6-0.7,1.4-1.3,2.3-1.7c0.9-0.4,1.9-0.6,3.1-0.6s2.1,0.2,3.1,0.6c0.9,0.4,1.7,1,2.3,1.7
		s1.1,1.6,1.5,2.7s0.5,2.2,0.5,3.5s-0.2,2.4-0.5,3.5s-0.8,1.9-1.5,2.7c-0.6,0.7-1.4,1.3-2.3,1.7C185.3,39.7,184.3,39.9,183.1,39.9z
		 M183.1,37.1c1.2,0,2.1-0.4,2.8-1.1c0.7-0.7,1.1-1.8,1.1-3.2v-2.7c0-1.4-0.4-2.5-1.1-3.2c-0.7-0.7-1.6-1.1-2.8-1.1
		s-2.1,0.4-2.8,1.1s-1.1,1.8-1.1,3.2v2.7c0,1.4,0.4,2.5,1.1,3.2C181,36.7,182,37.1,183.1,37.1z"/>
	<path class="st1" d="M197.2,39.5l-5.5-16.1h3.3l2.4,7.3l1.6,5.6h0.2l1.6-5.6l2.5-7.3h3.2L201,39.5H197.2z"/>
</g>
</svg>
