<?xml version="1.0" encoding="utf-8"?>
<!-- Generator: Adobe Illustrator 22.1.0, SVG Export Plug-In . SVG Version: 6.00 Build 0)  -->
<svg version="1.1" id="Layer_1" xmlns="http://www.w3.org/2000/svg" xmlns:xlink="http://www.w3.org/1999/xlink" x="0px" y="0px"
	 viewBox="0 0 195 76" style="enable-background:new 0 0 195 76;" xml:space="preserve">
<style type="text/css">
	.st0{fill:#00BA6A;}
	.st1{clip-path:url(#SVGID_2_);}
	.st2{fill:#00846A;}
	.st3{fill:#202B5D;}
	.st4{fill:#7E8B9E;}
</style>
<g>
	<g>
		<path class="st0" d="M64.1,26.4c0,0-0.6,2.5-1.3,5.3c-0.3,1.1-0.5,2.2-0.8,3.3c-0.4,1.5-0.7,2.9-0.9,4c-0.2,0.7-0.3,1.3-0.3,1.5
			c0,0,0,0,0,0c-0.1,0.2-0.6,0.4-1.3,0.6c-1.2,0.2-2.9,0.4-4.3,0.6c-1.2,0.2-2.1,0.4-2.1,0.7c0,0.1,0,0.1,0,0.2
			c0,0.3-0.1,0.8-0.1,1.4c0,0.9,0,2.2,0,3.6c0,1.1,0,2.2,0,3.2c0,2.3,0.1,4.3,0.1,4.8c0,0.3-0.1,0.6-0.3,1.1
			c-0.6,1.4-1.8,3.4-1.8,3.4s-3.6,5.5-6.7,9.8c-1.9,2.7-3.5,5-3.9,5.3c-0.7,0.6-4.3-0.2-6.3-0.7c-0.8-0.2-1.4-0.4-1.4-0.4
			c-1.8-1.7-2.4-4.3-2.6-7.3c-0.1-1.9,0-3.9,0.1-5.8c0.1-1.1,0.2-2.3,0.2-3.3c0.1-1.3,0.1-2.5,0.1-3.6c0-0.5,0-0.9-0.1-1.3
			c-0.1-1.3-0.5-2.4-1.2-3c0,0,0,0,0,0c-0.7-0.6-1.2-1.4-1.6-2.3c-0.9-1.8-1.4-4.1-1.7-6.1c-0.3-2.2-0.3-3.9-0.3-3.9
			s-0.3-0.2-0.8-0.5c-0.6-0.3-1.5-0.8-2.3-1.3c-1.2-0.7-2.4-1.3-2.6-1.2c-0.4,0.1-9.4,2.2-9.4,2.2l-3-3.7l-2.3-2.8L3.5,28l-0.6-0.7
			L3,26.8L3.6,22l-1.1-3l-1-2.7l-0.3-0.8l0.5-0.6l4.7-6l1.6-2.1l3.6-4.7l8.2-0.6l3.6-0.3L26.2,1l1.9,2.1l0.9,1l0.5,0.5l4.1,0.5
			l13.1,1.7l0.2,0.4l0.7,1.1l1.4,2.4l1.8,3.1l0.1,0.1c0,0,5.5,3.7,8.1,5.6c0.8,0.6,1.3,1,1.4,1.1c0.1,0.1,0.2,0.2,0.3,0.5
			c0.6,0.8,1.7,2.5,2.5,3.8C63.7,25.7,64.1,26.4,64.1,26.4z"/>
		<g>
			<defs>
				<path id="SVGID_1_" d="M64.7,26.4c0,0-0.6,2.5-1.3,5.3c-0.3,1.1-0.5,2.2-0.8,3.3c-0.4,1.5-0.7,2.9-0.9,4
					c-0.2,0.7-0.3,1.3-0.3,1.5c0,0,0,0,0,0c-0.1,0.2-0.6,0.4-1.3,0.6c-1.2,0.2-2.9,0.4-4.3,0.6c-1.2,0.2-2.1,0.4-2.1,0.7
					c0,0.1,0,0.1,0,0.2c0,0.3-0.1,0.8-0.1,1.4c0,0.9,0,2.2,0,3.6c0,1.1,0,2.2,0,3.2c0,2.3,0.1,4.3,0.1,4.8c0,0.3-0.1,0.6-0.3,1.1
					c-0.6,1.4-1.8,3.4-1.8,3.4S48,65.6,45,69.9c-1.9,2.7-3.5,5-3.9,5.3c-0.7,0.6-4.3-0.2-6.3-0.7c-0.8-0.2-1.4-0.4-1.4-0.4
					c-1.8-1.7-2.4-4.3-2.6-7.3c-0.1-1.9,0-3.9,0.1-5.8c0.1-1.1,0.2-2.3,0.2-3.3c0.1-1.3,0.1-2.5,0.1-3.6c0-0.5,0-0.9-0.1-1.3
					c-0.1-1.3-0.5-2.4-1.2-3c0,0,0,0,0,0c-0.7-0.6-1.2-1.4-1.6-2.3c-0.9-1.8-1.4-4.1-1.7-6.1c-0.3-2.2-0.3-3.9-0.3-3.9
					s-0.3-0.2-0.8-0.5c-0.6-0.3-1.5-0.8-2.3-1.3c-1.2-0.7-2.4-1.3-2.6-1.2c-0.4,0.1-9.4,2.2-9.4,2.2l-3-3.7l-2.3-2.8L4.1,28
					l-0.6-0.7l0.1-0.5L4.1,22l-1.1-3l-1-2.7l-0.3-0.8l0.5-0.6l4.7-6l1.6-2.1l3.6-4.7l8.2-0.6l3.6-0.3L26.7,1l1.9,2.1l0.9,1L30,4.6
					L34,5.1l13.1,1.7l0.2,0.4L48,8.3l1.4,2.4l1.8,3.1l0.1,0.1c0,0,5.5,3.7,8.1,5.6c0.8,0.6,1.3,1,1.4,1.1c0.1,0.1,0.2,0.2,0.3,0.5
					c0.6,0.8,1.7,2.5,2.5,3.8C64.2,25.7,64.7,26.4,64.7,26.4z"/>
			</defs>
			<clipPath id="SVGID_2_">
				<use xlink:href="#SVGID_1_"  style="overflow:visible;"/>
			</clipPath>
			<g class="st1">
				<g>
					<path class="st2" d="M59.5,26.5c0,0.1,0,0.1,0,0.2v0.1c0,0.3-0.1,0.5-0.1,0.8c-0.1,0.4-0.2,0.7-0.3,1.1c-0.3,0.8-0.8,1.4-1.4,2
						l-0.1,0.1c-1,0.9-2.3,1.4-3.8,1.4c-1.4,0-2.8-0.5-3.8-1.4c-0.3-0.2-0.5-0.5-0.7-0.7c-0.2-0.3-0.4-0.6-0.6-1
						c-0.2-0.4-0.3-0.8-0.4-1.2c-0.1-0.4-0.1-0.7-0.2-1.1c0-0.1,0-0.2,0-0.3c0-0.1,0-0.2,0-0.4c0-0.3,0.1-0.7,0.2-1
						c0.1-0.5,0.3-1.1,0.6-1.5c0.4-0.7,0.9-1.3,1.6-1.7c0,0,0.1-0.1,0.1-0.1c0.9-0.6,2-1,3.2-1c1.1,0,2,0.3,2.9,0.8
						c0.3,0.2,0.5,0.3,0.7,0.5c0.6,0.5,1.1,1.1,1.5,1.8c0.1,0.1,0.1,0.2,0.2,0.3C59.3,25,59.5,25.7,59.5,26.5z"/>
					<g>
						<path class="st0" d="M59,24.3l-10.9,0.9c0.1-0.5,0.3-1.1,0.6-1.5L58.9,24C58.9,24.1,59,24.2,59,24.3z"/>
						<path class="st0" d="M59.7,26.9l-0.2,0H48c0.2,0.1,0.2,0,0.2-0.1c0-0.1,0-0.2,0-0.4L59.7,26.9z"/>
						<path class="st0" d="M59.4,27.6c-0.1,0.4-0.2,0.7-0.3,1.1c-2.5,0.1-7.9,0.4-10.4,0.4c-0.2-0.4-0.3-0.8-0.4-1.2L59.4,27.6z"/>
						<path class="st0" d="M57.9,30.9l-0.3-0.1L50.2,31c-0.3-0.2-0.5-0.5-0.7-0.7C51.4,30.3,55.8,30.7,57.9,30.9z"/>
						<path class="st2" d="M57.5,22.3l-7-0.2c0,0,0.1-0.1,0.1-0.1l6.1-0.2C57.1,21.9,57.3,22.1,57.5,22.3z"/>
					</g>
				</g>
				<path class="st2" d="M21.7,49.8c4.7,1.2,9.1,3.4,13.9,3.9c8.9,0.8,17.4-4.6,26.3-4.8c3.5-0.1,7.3,0.8,9.7,3.4
					c2.7,2.8,3.2,7.1,2.8,11c-6.8,0-13.5-0.1-20.3-0.2c-6.8-0.1-9.7,19.7-16.5,19.5c-6.7-0.2-17.3-20.5-24.1-20.9
					c-3.9-0.2-10.1-2.6-7.1-7.5c2.9-4.8,8.4-5.7,13.6-4.8C20.6,49.6,21.2,49.7,21.7,49.8z"/>
				<path class="st2" d="M50.1,39.1c-0.4,0.1-0.8,0.3-1,0.6c-0.3,0.6,0.2,1.3,0.8,1.5c-0.3-0.1,1.8-0.1,1.9-0.2
					c-1.2,0.8-2.6,1.2-4.1,1.2c-0.4,0-0.7-0.1-1.1,0c-0.3,0.1-0.7,0.4-0.6,0.8c0.1,0.4,0.5,0.6,0.9,0.7c1.1,0.3,2.2,0.4,3.3,0.4
					c0.4,0,1,0,1.2,0.4c0.2,0.3,0,0.7-0.3,0.9c-0.3,0.2-0.7,0.2-1.1,0.2c-0.8,0-1.6,0.1-2.4,0.1c-0.4,0-0.8,0.1-1.1,0.4
					c-0.4,0.4-0.2,1.2,0.3,1.5c0.5,0.3,1.1,0.4,1.7,0.4c6.6,0.5,13.4,1,19.8-0.6c0.6-0.2,1.3-0.4,1.5-1c0.1-0.4-0.1-0.9-0.4-1.2
					c-0.3-0.3-0.7-0.5-1.2-0.6c-1.2-0.3-2.4-0.4-3.6-0.3c-0.3,0-0.5,0.1-0.8,0c-0.2-0.1-0.4-0.4-0.3-0.6c0.1-0.2,0.3-0.2,0.5-0.3
					c1.4-0.3,2.7-0.6,4.1-0.8c-2-0.7-4.2-0.8-6.3-0.3c-0.4,0.1-0.8,0.2-1.2,0.2c-0.4-0.1-0.8-0.5-0.7-0.9c0.1-0.5,0.8-0.7,1.4-0.7
					c0.6,0,1.1,0,1.7,0c0.6,0,1.3-0.1,1.5-0.6c0.5-1-0.8-1.4-1.5-1.5c-0.8-0.1-1.6-0.3-2.4-0.4c-2.2-0.4-4.5-0.4-6.7-0.1
					C52.6,38.5,51.3,38.7,50.1,39.1z"/>
				<g>
					<path class="st2" d="M18.7,38.7c0.1,0.4,0.3,0.9,0.6,1.2c0.3,0.3,0.8,0.5,1.3,0.4c0.5-0.1,0.8-0.5,1-1c0.2-0.5,0.2-0.9,0.2-1.4
						c0.7,1.1,2.4,1.4,3.4,0.7c1-0.6,1.5-2,2.7-2.3c0.9-0.2,1.8,0.3,2.4,1c0.6,0.7,1,1.5,1.7,2.2c0.6,0.7,1.6,1.2,2.5,0.9
						c0.6-0.2,1.1-0.7,1.7-0.9c0.7-0.2,1.4,0,2.1,0.1c3.2,0.6,6.5-0.3,9.7-1.3c-0.7-0.9-1.8-1.5-3-1.4c-0.3,0-0.6,0.1-0.8,0.1
						c-0.3,0-0.6-0.2-0.6-0.5c-0.1-0.4,0.3-0.7,0.6-1c0.3-0.2,0.7-0.5,0.7-0.9c0-0.3-0.2-0.6-0.5-0.7c-0.3-0.1-0.6-0.1-0.9-0.1
						c-1.4,0-2.8,0-4.1,0c-0.6,0-1.2,0-1.7-0.3c-0.5-0.2-0.9-0.8-0.9-1.4c0.1-0.6,0.6-0.9,0.8-1.5c0.3-0.8-0.2-1.7-0.9-2.1
						c-0.7-0.4-1.5-0.5-2.4-0.6c-0.8-0.1-1.7-0.1-2.4-0.4c-0.4-0.2-0.8-0.5-1.2-0.7c-2-1.2-4.7-0.9-6.5,0.6
						c-0.8,0.6-1.3,1.4-1.9,2.2c-0.6,0.9-1.2,1.7-1.8,2.6c-0.2,0-1,1.3-1.1,1.5c-0.2,0.3-0.4,0.6-0.5,1
						C18.5,36.3,18.4,37.5,18.7,38.7z"/>
					<path class="st2" d="M36.8,42.8c-0.5,0.3-1.1,0.7-1.6,1.1c-3.2,2.5-5,6.7-4.6,10.7c-0.4,0-1.3-0.1-1.7-0.1
						c-0.1-1.7,0.1-3.3-0.2-4.9c-0.2-0.8-0.3-1.6-0.9-2.2c-0.5-0.6-1.2-0.9-1.8-1.2c-2.9-1.7-4.7-5.1-5.1-8.4
						c0.3-0.3,0.3-0.3,0.7-0.5c1,4.9,4,6.8,7.2,9.2c1.5-3.5,1.3-7.8-0.6-11.2c1.1,0.3,1.9,1.3,2.1,2.4c0.3,1.1,0.4,2.2,0.2,3.3
						c1.5-0.4,2.1-1.9,2.5-3.4c0.3,0.3,0.5,1.2,0.3,1.6c-0.2,0.4-0.5,0.7-0.8,1c-1.5,1.7-2,4.3-1.2,6.5c2-2.3,3.4-5.2,3.8-8.2
						c0.2-0.2,0.5-0.1,0.6,0.2c0.1,0.2,0.1,0.5,0,0.7c-0.2,0.9-0.4,1.8-0.6,2.7c2-0.5,3.8-1.6,5.2-3c0.3,0,0.8,0.7,0.8,0.9
						c-0.1,0.4-1,0.8-1.3,1C38.9,41.5,37.8,42.1,36.8,42.8z"/>
					<path class="st2" d="M26.4,36.1c0,0,1.6,2.3,3.6,3.1v0.4c0,0-1.3-0.3-3.9-2.8L26.4,36.1z"/>
					<path class="st2" d="M24.3,43.9c0-0.2,0.6-3.6,0.4-6l0.4-0.4c0,0,0.6,4-0.2,6.3H24.3z"/>
					<path class="st2" d="M39.4,41.1c0,0,3.1,0.3,3.9-1.8h0.4c0,0-1.1,2.8-4.9,2.2L39.4,41.1z"/>
				</g>
				<g>
					<path class="st2" d="M-6,25.1c0.2,0.6,0.4,1.3,0.9,1.8c0.5,0.5,1.2,0.8,1.8,0.7c0.7-0.1,1.2-0.7,1.5-1.4
						c0.3-0.7,0.3-1.4,0.3-2.1c1,1.6,3.4,2.1,5,1c1.4-0.9,2.2-2.9,3.9-3.3c1.3-0.3,2.6,0.5,3.5,1.5c0.9,1,1.5,2.2,2.4,3.2
						c0.9,1,2.3,1.7,3.6,1.3c0.9-0.3,1.6-1,2.4-1.3c1-0.3,2.1,0,3.1,0.2c4.7,0.9,9.5-0.5,14.1-1.8c-1-1.4-2.7-2.2-4.3-2
						c-0.4,0-0.8,0.1-1.2,0.1c-0.4-0.1-0.8-0.3-0.9-0.7c-0.2-0.6,0.4-1.1,0.9-1.4c0.5-0.3,1.1-0.7,1.1-1.3c0-0.4-0.3-0.8-0.8-1
						c-0.4-0.2-0.9-0.2-1.3-0.2c-2,0-4,0-6-0.1c-0.8,0-1.7,0-2.5-0.4s-1.4-1.2-1.2-2c0.1-0.8,0.9-1.4,1.2-2.1
						c0.4-1.1-0.3-2.4-1.3-3.1c-1-0.6-2.3-0.8-3.4-0.9c-1.2-0.1-2.4-0.1-3.5-0.6c-0.6-0.3-1.2-0.7-1.8-1C8.5,6.5,4.6,6.8,2,9
						C0.9,9.9,0,11.1-0.8,12.3c-0.9,1.2-1.8,2.5-2.6,3.7c-0.3,0-1.4,2-1.6,2.3c-0.3,0.5-0.5,0.9-0.7,1.5C-6.3,21.5-6.5,23.3-6,25.1z
						"/>
					<path class="st2" d="M20.3,31c-0.8,0.5-1.6,1-2.3,1.6c-4.7,3.6-7.3,9.7-6.7,15.6c-0.6,0-1.8-0.2-2.4-0.2
						c-0.1-2.5,0.2-4.8-0.3-7.2c-0.2-1.2-0.5-2.3-1.3-3.2c-0.7-0.8-1.7-1.3-2.6-1.8c-4.3-2.5-6.8-7.4-7.5-12.3
						c0.5-0.4,0.5-0.4,1-0.8c1.5,7.1,5.9,9.9,10.4,13.3c2.2-5.2,1.9-11.3-0.8-16.3c1.6,0.4,2.7,1.9,3.1,3.5c0.4,1.6,0.6,3.2,0.3,4.8
						c2.2-0.5,3.1-2.7,3.6-4.9c0.4,0.5,0.8,1.7,0.5,2.3c-0.3,0.6-0.8,1-1.2,1.5c-2.2,2.5-2.9,6.3-1.7,9.4c3-3.3,4.9-7.5,5.5-11.9
						c0.2-0.3,0.7-0.1,0.9,0.2c0.1,0.3,0.1,0.7,0,1c-0.3,1.3-0.6,2.6-0.9,3.9c2.9-0.7,5.5-2.3,7.6-4.4c0.4,0,1.2,1,1.1,1.4
						c-0.1,0.6-1.4,1.1-1.9,1.4C23.3,29.1,21.8,30.1,20.3,31z"/>
					<path class="st2" d="M5.2,21.2c0,0,2.4,3.4,5.3,4.5v0.6c0,0-1.9-0.5-5.7-4.1L5.2,21.2z"/>
					<path class="st2" d="M2.2,32.7c0-0.3,0.9-5.3,0.5-8.7l0.5-0.5c0,0,0.9,5.8-0.3,9.2H2.2z"/>
					<path class="st2" d="M24.1,28.6c0,0,4.6,0.5,5.7-2.6h0.6c0,0-1.6,4-7.2,3.2L24.1,28.6z"/>
				</g>
			</g>
		</g>
	</g>
</g>
<g>
	<path class="st3" d="M80.2,34.3c0,0.6,0,1.2,0,1.6c0,0.4,0,0.8-0.1,1.1l6.7-0.1c0.8,0,1.5-0.1,2.1-0.3c0.6-0.2,1.1-0.5,1.6-0.9
		c0.4-0.4,0.8-1,1-1.7s0.4-1.6,0.4-2.6H93l-0.2,6.8H74.8v-1.2c0.6,0,1-0.1,1.3-0.3c0.3-0.2,0.6-0.4,0.7-0.7c0.2-0.3,0.3-0.6,0.3-1
		c0-0.4,0.1-0.8,0.1-1.3v-1V17.7c0-0.5,0-0.9,0-1.4c0-0.4,0-0.8,0.1-1.2l-2.5,0.2v-1.5h16.8l0.2,6.1h-1.1c0-1-0.1-1.8-0.4-2.5
		c-0.2-0.6-0.6-1.1-1-1.5c-0.4-0.4-0.9-0.6-1.4-0.7c-0.5-0.1-1.1-0.2-1.8-0.2l-3.2,0.1c-0.6,0-1.2,0.1-1.5,0.3
		c-0.4,0.2-0.6,0.4-0.8,0.8c-0.2,0.3-0.3,0.8-0.3,1.3s0,1.1,0,1.8v5.6h6.6l-0.3-3h1.6v7.4h-1.1c0-0.7-0.1-1.2-0.2-1.6
		c-0.1-0.4-0.3-0.7-0.6-0.9c-0.3-0.2-0.6-0.4-1-0.4c-0.4-0.1-0.9-0.1-1.4-0.1c-0.2,0-0.3,0-0.5,0s-1.2,0-3.1,0.1V34.3z"/>
	<path class="st3" d="M118,37.1h-1c-0.4,0-0.9,0.1-1.5,0.2c-0.6,0.1-1.4,0.4-2.2,0.7c-0.4,0.1-0.8,0.3-1.2,0.4
		c-0.4,0.1-0.9,0.2-1.3,0.3c-0.5,0.1-0.9,0.1-1.3,0.2c-0.4,0-0.9,0.1-1.2,0.1c-1.8,0-3.4-0.3-4.8-0.8c-1.5-0.6-2.7-1.4-3.8-2.4
		c-1-1.1-1.9-2.3-2.4-3.9c-0.6-1.5-0.9-3.2-0.9-5.2c0-1.1,0.1-2.2,0.3-3.3s0.6-2.1,1-3.1s1-1.9,1.7-2.8c0.7-0.8,1.5-1.6,2.4-2.2
		c0.9-0.6,1.9-1.1,3.1-1.5c1.1-0.4,2.4-0.5,3.7-0.5c0.6,0,1.3,0,1.9,0.1c0.6,0.1,1.3,0.2,1.9,0.4c0.6,0.2,1.2,0.4,1.8,0.6
		c0.6,0.2,1.1,0.5,1.6,0.8l-0.2-1.7h1.9v8h-1.3c-0.1-1.1-0.3-2.1-0.7-2.9c-0.4-0.9-0.9-1.6-1.6-2.2c-0.7-0.6-1.4-1-2.3-1.3
		s-1.8-0.5-2.8-0.5c-1.2,0-2.4,0.3-3.5,0.8c-1.1,0.6-2,1.3-2.9,2.3c-0.8,1-1.4,2.2-1.9,3.5c-0.5,1.4-0.7,2.9-0.7,4.5
		c0,1.7,0.2,3.2,0.7,4.6c0.5,1.4,1.1,2.6,1.9,3.6s1.8,1.8,3,2.4c1.2,0.6,2.4,0.9,3.8,0.9c0.5,0,1,0,1.5-0.1c0.5-0.1,1-0.2,1.5-0.3
		c0.5-0.1,1-0.3,1.5-0.5c0.5-0.2,1-0.5,1.4-0.8v-7.7l-2.5,0.1v-1.5h7.9v1.1c-0.4,0-0.8,0.1-1.1,0.2c-0.3,0.2-0.5,0.4-0.7,0.6
		c-0.2,0.3-0.3,0.5-0.4,0.9c-0.1,0.3-0.2,0.6-0.2,0.9c0,0.3-0.1,0.6-0.1,0.9c0,0.3,0,0.5,0,0.6V37.1z"/>
	<path class="st3" d="M122.9,26.1c0-1,0.1-2,0.3-3c0.2-1,0.5-2,1-2.9c0.4-1,1-1.8,1.7-2.7c0.7-0.8,1.5-1.6,2.4-2.2
		c0.9-0.6,1.9-1.1,3.1-1.5c1.1-0.4,2.4-0.5,3.8-0.5c1.4,0,2.7,0.2,3.9,0.5c1.2,0.4,2.2,0.9,3.1,1.5c0.9,0.6,1.7,1.4,2.4,2.2
		c0.7,0.8,1.2,1.7,1.7,2.7s0.8,1.9,1,2.9c0.2,1,0.3,2,0.3,3c0,1-0.1,2-0.3,3c-0.2,1-0.6,2-1,2.9c-0.4,1-1,1.8-1.7,2.7
		c-0.7,0.8-1.5,1.6-2.4,2.2c-0.9,0.6-1.9,1.1-3.1,1.5c-1.1,0.4-2.4,0.5-3.8,0.5c-1.5,0-2.8-0.2-4-0.5c-1.2-0.4-2.2-0.8-3.2-1.4
		c-0.9-0.6-1.7-1.3-2.4-2.2c-0.7-0.8-1.2-1.7-1.6-2.7c-0.4-0.9-0.7-1.9-0.9-3S122.9,27.1,122.9,26.1z M126.3,25.4
		c0,0.9,0.1,1.8,0.2,2.7c0.2,0.9,0.4,1.8,0.7,2.7c0.3,0.9,0.7,1.7,1.2,2.5c0.5,0.8,1.1,1.5,1.8,2.1c0.7,0.6,1.4,1.1,2.3,1.4
		c0.8,0.4,1.8,0.5,2.8,0.5c1,0,1.8-0.1,2.6-0.4c0.8-0.3,1.5-0.7,2.2-1.2c0.6-0.5,1.2-1.1,1.7-1.8c0.5-0.7,0.9-1.4,1.2-2.2
		c0.3-0.8,0.6-1.6,0.7-2.5c0.2-0.9,0.2-1.7,0.2-2.5c0-0.8-0.1-1.8-0.3-2.8c-0.2-1-0.5-2-0.8-2.9c-0.4-0.9-0.8-1.7-1.3-2.5
		c-0.5-0.8-1.1-1.5-1.8-2c-0.7-0.6-1.4-1-2.2-1.4c-0.8-0.3-1.7-0.5-2.7-0.5c-1.4,0-2.7,0.3-3.8,1c-1.1,0.6-2,1.5-2.7,2.5
		c-0.7,1-1.3,2.2-1.6,3.5C126.5,22.8,126.3,24.1,126.3,25.4z"/>
	<path class="st3" d="M148.9,13.8h8.1V15l0,0c-0.6,0-1,0.1-1.4,0.3c-0.3,0.2-0.6,0.4-0.7,0.8c-0.1,0.3-0.2,0.7-0.1,1.2
		s0.2,1,0.5,1.5c0.3,0.7,0.5,1.4,0.8,2c0.3,0.7,0.5,1.3,0.8,2c0.3,0.7,0.5,1.3,0.8,2c0.3,0.7,0.6,1.4,0.9,2.1
		c0.3,0.7,0.6,1.3,0.8,1.9c0.3,0.6,0.5,1.2,0.8,1.8c0.2,0.6,0.5,1.1,0.7,1.6c0.2,0.5,0.4,1,0.5,1.4h0.1c3.1-8.8,4.9-13.9,5.5-15.4
		c0.5-1.5,0.9-2.5,1.2-3.1l-2.7,0.2v-1.6h7.1V15c-0.5,0-1,0.1-1.4,0.2c-0.4,0.1-0.7,0.3-1,0.6c-0.3,0.3-0.6,0.6-0.8,1
		c-0.2,0.4-0.6,1.2-0.9,2.3c-0.4,1.1-0.9,2.5-1.5,4.1c-0.6,1.6-1.1,3.1-1.6,4.5c-0.5,1.4-1.1,2.9-1.7,4.8c-0.7,1.8-1.4,3.9-2.3,6.2
		h-1l-7.9-18.6c-0.3-0.6-0.5-1.1-0.6-1.6c-0.2-0.5-0.3-0.9-0.4-1.3c-0.1-0.4-0.2-0.7-0.3-1s-0.1-0.6-0.1-0.9l-2,0.1V13.8z"/>
	<path class="st3" d="M192.2,21.2c0-1-0.1-1.9-0.2-2.7c-0.1-0.8-0.4-1.4-0.7-1.9s-0.8-0.9-1.4-1.1c-0.6-0.3-1.3-0.4-2.2-0.4l-3,0
		l-0.1,19.1c0,1.3,0,2.2-0.1,2.8l2.9-0.1v1.5h-8.2v-1.1c0.6,0,1.1-0.1,1.5-0.4c0.3-0.2,0.6-0.5,0.7-0.9s0.2-0.8,0.2-1.3
		c0-0.5,0-1.1,0-1.7l0.1-17.8l-3.6,0c-0.7,0-1.4,0.1-1.9,0.4c-0.5,0.2-0.9,0.6-1.2,1.1c-0.3,0.5-0.5,1.1-0.7,1.9
		c-0.1,0.8-0.2,1.7-0.2,2.7h-1.3l0.2-7.4h20.4l0.2,7.4H192.2z"/>
</g>
<g>
	<path class="st4" d="M77.6,61V46.4h3.2c0.6,0,1.1,0.1,1.6,0.2c0.5,0.1,0.8,0.3,1.1,0.6s0.5,0.5,0.7,0.9s0.3,0.8,0.4,1.2
		c0.1,0.4,0.1,0.9,0.1,1.4v5.8c0,0.7-0.1,1.3-0.2,1.9s-0.3,1-0.6,1.4s-0.7,0.7-1.2,0.9c-0.5,0.2-1.1,0.3-1.8,0.3H77.6z M79,60h1.8
		c0.5,0,0.8-0.1,1.1-0.2s0.6-0.3,0.7-0.5c0.2-0.2,0.3-0.5,0.4-0.8s0.2-0.7,0.2-1c0-0.3,0-0.7,0-1.2v-5.4c0-0.5,0-0.9-0.1-1.2
		c0-0.3-0.1-0.6-0.2-0.9c-0.1-0.3-0.3-0.5-0.4-0.7c-0.2-0.2-0.4-0.3-0.7-0.4c-0.3-0.1-0.7-0.1-1.1-0.1H79V60z"/>
	<path class="st4" d="M86.9,49.2v-1.8h1.3v1.8H86.9z M86.9,61V50.6h1.3V61H86.9z"/>
	<path class="st4" d="M92.8,61.2c-0.8,0-1.5-0.3-2-0.8c-0.5-0.5-0.8-1.3-0.8-2.2l1.1-0.3c0.1,0.8,0.3,1.4,0.5,1.7
		c0.3,0.4,0.7,0.6,1.2,0.6c0.5,0,0.8-0.1,1.1-0.4c0.3-0.3,0.4-0.6,0.4-1c0,0,0,0,0-0.1c0-0.7-0.4-1.4-1.3-2.1l-1.4-1.2
		c-0.5-0.4-0.9-0.8-1.1-1.2c-0.2-0.4-0.3-0.8-0.3-1.4c0-0.8,0.2-1.4,0.7-1.8c0.4-0.4,1-0.6,1.8-0.6c0.8,0,1.4,0.2,1.8,0.7
		c0.4,0.5,0.6,1.2,0.7,2l-0.9,0.3c0-0.7-0.2-1.2-0.4-1.6s-0.6-0.5-1-0.5c-0.4,0-0.7,0.1-1,0.3c-0.2,0.2-0.4,0.5-0.4,0.9
		c0,0.3,0.1,0.6,0.2,0.9c0.1,0.2,0.3,0.5,0.7,0.8l1.5,1.3c0.3,0.2,0.5,0.4,0.6,0.6c0.2,0.2,0.3,0.4,0.5,0.6c0.2,0.3,0.3,0.5,0.4,0.8
		s0.1,0.6,0.1,1c0,0.8-0.2,1.4-0.7,1.8C94.2,60.9,93.6,61.2,92.8,61.2z"/>
	<path class="st4" d="M99.5,61.2c-0.5,0-0.9-0.1-1.2-0.2s-0.6-0.3-0.8-0.5c-0.2-0.2-0.4-0.5-0.5-0.9c-0.1-0.4-0.2-0.7-0.2-1.1
		c0-0.4-0.1-0.8-0.1-1.3v-2.4c0-0.8,0-1.4,0.1-1.9c0.1-0.5,0.2-0.9,0.4-1.3c0.2-0.4,0.5-0.6,0.9-0.8c0.4-0.2,0.8-0.2,1.4-0.2
		c0.4,0,0.8,0.1,1.1,0.2s0.6,0.3,0.8,0.4c0.2,0.2,0.4,0.4,0.5,0.7c0.1,0.3,0.2,0.6,0.2,0.9c0,0.3,0.1,0.7,0.1,1.1v0.5h-1.2v-0.5
		c0-0.9-0.1-1.5-0.3-1.8s-0.6-0.5-1.1-0.5c-0.6,0-1,0.2-1.2,0.6c-0.2,0.4-0.3,1.2-0.3,2.4v2.9c0,1.1,0.1,1.8,0.3,2.2
		c0.2,0.4,0.6,0.6,1.2,0.6c0.2,0,0.5,0,0.6-0.1s0.3-0.2,0.4-0.3s0.2-0.3,0.2-0.5s0.1-0.4,0.1-0.7c0-0.2,0-0.5,0-0.9v-0.6h1.2v0.5
		c0,0.5,0,0.9-0.1,1.2s-0.1,0.7-0.2,1c-0.1,0.3-0.3,0.6-0.5,0.8s-0.4,0.4-0.8,0.5S99.9,61.2,99.5,61.2z"/>
	<path class="st4" d="M107.8,60.9c-0.4,0.2-0.8,0.3-1.3,0.3s-1-0.1-1.3-0.3s-0.6-0.4-0.9-0.8c-0.2-0.3-0.4-0.8-0.4-1.2
		c-0.1-0.5-0.1-1-0.1-1.7v-2.9c0-1.3,0.2-2.3,0.6-3s1.1-1,2.2-1c1,0,1.8,0.3,2.2,1c0.4,0.6,0.6,1.6,0.6,3v2.9c0,0.7,0,1.2-0.1,1.7
		c-0.1,0.5-0.2,0.9-0.4,1.2S108.2,60.7,107.8,60.9z M106.5,60.2c0.3,0,0.5,0,0.7-0.1c0.2-0.1,0.3-0.2,0.4-0.4s0.2-0.4,0.2-0.6
		s0.1-0.5,0.1-0.8s0-0.6,0-1v-3c0-0.4,0-0.7,0-1s0-0.5-0.1-0.8s-0.1-0.5-0.2-0.6s-0.2-0.3-0.4-0.4c-0.2-0.1-0.4-0.1-0.7-0.1
		c-0.2,0-0.4,0-0.6,0.1s-0.3,0.2-0.4,0.3c-0.1,0.1-0.2,0.3-0.3,0.4c-0.1,0.2-0.1,0.3-0.1,0.6s-0.1,0.5-0.1,0.7c0,0.2,0,0.5,0,0.8v3
		c0,0.3,0,0.6,0,0.8c0,0.2,0,0.4,0.1,0.7s0.1,0.4,0.1,0.6c0.1,0.1,0.1,0.3,0.3,0.4c0.1,0.1,0.2,0.2,0.4,0.3S106.3,60.2,106.5,60.2z"
		/>
	<path class="st4" d="M112.7,61l-2.3-10.4h1.3l1.7,8.9l1.7-8.9h1.3L114.2,61H112.7z"/>
	<path class="st4" d="M120.3,61.2c-1,0-1.7-0.3-2.2-0.9s-0.7-1.7-0.7-3.2v-2.6c0-1,0.1-1.8,0.3-2.4c0.2-0.6,0.5-1,0.9-1.3
		c0.4-0.2,0.9-0.4,1.6-0.4c0.4,0,0.8,0.1,1.1,0.2c0.3,0.1,0.6,0.3,0.8,0.5s0.4,0.5,0.5,0.9c0.1,0.4,0.2,0.8,0.3,1.2
		c0,0.4,0.1,1,0.1,1.6l0,0.9h-4.2v1.6c0,1.1,0.1,1.8,0.3,2.3c0.2,0.4,0.6,0.7,1.2,0.7c0.5,0,0.8-0.1,1.1-0.4
		c0.2-0.3,0.4-0.8,0.4-1.6v-0.7h1.3V58c0,1-0.2,1.8-0.6,2.3S121.3,61.2,120.3,61.2z M118.8,54.9h2.9V54c0-0.4,0-0.7,0-0.9
		s-0.1-0.5-0.1-0.7c-0.1-0.2-0.1-0.4-0.2-0.6s-0.2-0.2-0.4-0.3s-0.4-0.1-0.6-0.1c-0.6,0-0.9,0.2-1.2,0.6c-0.2,0.4-0.3,1.1-0.3,2.2
		V54.9z"/>
	<path class="st4" d="M124.9,61V50.6h1.3V52c0.3-0.5,0.7-0.9,1.1-1.2s0.9-0.4,1.3-0.4c0.1,0,0.2,0,0.2,0v1.4
		c-0.2-0.1-0.4-0.1-0.6-0.1c-0.8,0-1.5,0.4-2,1.2v8H124.9z"/>
	<path class="st4" d="M136.3,61.1c-0.7,0-1.2-0.2-1.5-0.6c-0.3-0.4-0.4-1-0.4-1.7v-7.4h-1.3v-0.9h1.3v-3.2h1.3v3.2h1.7v0.9h-1.7v7.2
		c0,0.5,0.1,0.9,0.2,1.1s0.4,0.3,0.7,0.3c0.2,0,0.5,0,0.7-0.1v1C137,61.1,136.7,61.1,136.3,61.1z"/>
	<path class="st4" d="M138.9,61V46.4h1.3v5.3c0.8-0.8,1.6-1.3,2.5-1.3c0.5,0,0.9,0.2,1.2,0.6s0.4,0.9,0.4,1.6V61H143v-8.1
		c0-0.5-0.1-0.9-0.2-1.1s-0.4-0.3-0.7-0.3c-0.6,0-1.2,0.3-1.8,1V61H138.9z"/>
	<path class="st4" d="M148.9,61.2c-1,0-1.7-0.3-2.2-0.9s-0.7-1.7-0.7-3.2v-2.6c0-1,0.1-1.8,0.3-2.4c0.2-0.6,0.5-1,0.9-1.3
		c0.4-0.2,0.9-0.4,1.6-0.4c0.4,0,0.8,0.1,1.1,0.2c0.3,0.1,0.6,0.3,0.8,0.5s0.4,0.5,0.5,0.9c0.1,0.4,0.2,0.8,0.3,1.2
		c0,0.4,0.1,1,0.1,1.6l0,0.9h-4.2v1.6c0,1.1,0.1,1.8,0.3,2.3c0.2,0.4,0.6,0.7,1.2,0.7c0.5,0,0.8-0.1,1.1-0.4
		c0.2-0.3,0.4-0.8,0.4-1.6v-0.7h1.3V58c0,1-0.2,1.8-0.6,2.3S149.9,61.2,148.9,61.2z M147.4,54.9h2.9V54c0-0.4,0-0.7,0-0.9
		s-0.1-0.5-0.1-0.7c-0.1-0.2-0.1-0.4-0.2-0.6s-0.2-0.2-0.4-0.3s-0.4-0.1-0.6-0.1c-0.6,0-0.9,0.2-1.2,0.6c-0.2,0.4-0.3,1.1-0.3,2.2
		V54.9z"/>
	<path class="st4" d="M158.9,61V47.5H156v-1.1h7.2v1.1h-2.9V61H158.9z"/>
	<path class="st4" d="M168,60.9c-0.4,0.2-0.8,0.3-1.3,0.3s-1-0.1-1.3-0.3s-0.6-0.4-0.9-0.8c-0.2-0.3-0.4-0.8-0.4-1.2
		c-0.1-0.5-0.1-1-0.1-1.7v-2.9c0-1.3,0.2-2.3,0.6-3s1.1-1,2.2-1c1,0,1.8,0.3,2.2,1c0.4,0.6,0.6,1.6,0.6,3v2.9c0,0.7,0,1.2-0.1,1.7
		c-0.1,0.5-0.2,0.9-0.4,1.2S168.4,60.7,168,60.9z M166.7,60.2c0.3,0,0.5,0,0.7-0.1c0.2-0.1,0.3-0.2,0.4-0.4s0.2-0.4,0.2-0.6
		s0.1-0.5,0.1-0.8s0-0.6,0-1v-3c0-0.4,0-0.7,0-1s0-0.5-0.1-0.8s-0.1-0.5-0.2-0.6s-0.2-0.3-0.4-0.4c-0.2-0.1-0.4-0.1-0.7-0.1
		c-0.2,0-0.4,0-0.6,0.1s-0.3,0.2-0.4,0.3c-0.1,0.1-0.2,0.3-0.3,0.4c-0.1,0.2-0.1,0.3-0.1,0.6s-0.1,0.5-0.1,0.7c0,0.2,0,0.5,0,0.8v3
		c0,0.3,0,0.6,0,0.8c0,0.2,0,0.4,0.1,0.7s0.1,0.4,0.1,0.6c0.1,0.1,0.1,0.3,0.3,0.4c0.1,0.1,0.2,0.2,0.4,0.3S166.4,60.2,166.7,60.2z"
		/>
	<path class="st4" d="M172.5,61l-1.7-10.4h1.1l1.3,8.7l1.6-8.7h1.1l1.7,8.7l1.3-8.7h1.1L178.3,61h-1.2l-1.7-8.5l-1.6,8.5H172.5z"/>
	<path class="st4" d="M181.6,61V50.6h1.3v1.1c0.8-0.8,1.6-1.2,2.5-1.2c0.5,0,0.9,0.2,1.2,0.6s0.4,0.9,0.4,1.6V61h-1.3v-8.1
		c0-0.5-0.1-0.9-0.2-1.1c-0.2-0.2-0.4-0.3-0.8-0.3c-0.6,0-1.2,0.3-1.8,1V61H181.6z"/>
</g>
</svg>
