<svg enable-background="new 0 0 136 42" viewBox="0 0 136 42" xmlns="http://www.w3.org/2000/svg"><path d="m26 41h-10c-8.2 0-15-6.7-15-15v-10c0-8.2 6.8-15 15-15h10c8.3 0 15 6.8 15 15v10c0 8.3-6.7 15-15 15z" fill="#ff3514"/><g fill="#fff"><path d="m13.4 16.3h16.4c.4 0 .7-.3.7-.7s-.3-.7-.7-.7c-.3-3.8-3.1-6.8-6.8-7.4v-1h-1.2v-2.3c0-.1-.1-.2-.2-.2s-.2.1-.2.2v2.4h-1.2v1c-3.7.6-6.5 3.7-6.8 7.4-.4 0-.7.3-.7.7 0 .3.3.6.7.6z"/><path d="m33.3 33.5h-.9v-7.9h.9c.5 0 .9-.4.9-.9s-.4-.9-.9-.9h-23.3c-.5 0-.9.4-.9.9s.4.9.9.9h.9v7.9h-.9c-.5 0-.9.4-.9.9s.4.9.9.9h23.3c.5 0 .9-.4.9-.9-.1-.5-.5-.9-.9-.9zm-3.3 0h-1.4v-7.9h1.4zm-9.1-7.8h1.4v7.9h-1.4zm-2.4 7.8h-1.4v-7.9h1.4zm6.2-7.8h1.4v7.9h-1.4zm-11.5 0h1.4v7.9h-1.4z"/><path d="m12.4 19.3h.9v3.7h1.7v-3.7h.8v3.7h1.7v-3.7h.8v3.7h1.7v-3.7h.8v3.7h1.7v-3.7h.8v3.7h1.7v-3.7h.8v3.7h1.7v-3.7h.8v3.7h1.7v-3.7h.9c.5 0 .9-.4.9-.9s-.4-.9-.9-.9h-18.5c-.5 0-.9.4-.9.9s.4.9.9.9z"/></g><g enable-background="new" fill="#202b5d"><path d="m51.3 31v-23.4h14.6v2.1h-12.1v8.1h10.9v2.1h-10.9v8.9h12.4v2.2z"/><path d="m69 19.3c0-3.6.9-6.6 2.7-8.9 1.9-2.2 4.3-3.4 7.5-3.4 1.1 0 2.1.2 3 .5s1.7.8 2.3 1.3 1.1 1.1 1.5 1.6.7 1 1 1.6l-2.1.8c-1.5-2.4-3.4-3.6-5.7-3.6-2.4 0-4.3.9-5.6 2.8s-2 4.3-2 7.4c0 3.2.7 5.6 2.1 7.4s3.2 2.7 5.4 2.7c2 0 3.6-.7 4.7-2s1.7-2.9 1.7-4.7v-2.2h-6.6v-2.1h9.1v12.5h-1.8l-.2-3.4c-1.2 2.7-3.5 4-6.9 4-3 0-5.4-1.1-7.2-3.3s-2.9-5.2-2.9-9z"/><path d="m91.4 22.6c0-2.6.7-4.7 2-6.4s3.2-2.6 5.6-2.6 4.2.9 5.6 2.6c1.3 1.7 2 3.8 2 6.4 0 1.1-.1 2.1-.4 3.2-.3 1-.7 2-1.3 2.9s-1.4 1.6-2.4 2.1-2.2.8-3.5.8-2.4-.3-3.5-.8c-1-.5-1.8-1.2-2.4-2.1s-1-1.8-1.3-2.9c-.2-1-.4-2.1-.4-3.2zm2.5 0c0 2.1.5 3.8 1.5 5.1s2.2 1.9 3.7 1.9c1.4 0 2.7-.6 3.6-1.9 1-1.3 1.5-2.9 1.5-5.1s-.5-3.9-1.5-5.1-2.2-1.8-3.6-1.8-2.7.6-3.6 1.8c-1.1 1.2-1.6 2.9-1.6 5.1z"/><path d="m108.2 14.2h2.7l3.6 10.5c.2.5.4 1.3.7 2.2s.5 1.6.6 2h.1c.1-.5.4-1.2.7-2.1s.5-1.6.7-2.1l3.6-10.5h2.7l-6.3 16.8h-2.9z"/><path d="m124.4 16.2v-2h2.9v-5.4h2.4v5.4h4.4v2h-4.4v9.8c0 1 .2 1.8.6 2.2s1 .7 1.9.7h1.9v2.1h-2.3c-3.1 0-4.6-1.6-4.6-4.7v-10.1z"/></g></svg>