<?xml version="1.0" encoding="utf-8"?>
<!-- Generator: Adobe Illustrator 22.1.0, SVG Export Plug-In . SVG Version: 6.00 Build 0)  -->
<svg version="1.1" id="Layer_1" xmlns="http://www.w3.org/2000/svg" xmlns:xlink="http://www.w3.org/1999/xlink" x="0px" y="0px"
	 viewBox="0 0 190 54" style="enable-background:new 0 0 190 54;" xml:space="preserve">
<style type="text/css">
	.st0{fill:none;}
	.st1{fill:#F4F4F4;}
	.st2{fill:#E22143;}
	.st3{fill:#13275E;}
	.st4{fill:#202B5D;}
	.st5{fill:#C32644;}
	.st6{opacity:0.5;fill:#FFFFFF;}
	.st7{fill:#FFFFFF;}
</style>
<g>
	<path class="st0" d="M29,2.1C28.2,2.1,27.3,2,26.3,2s-1.8,0.1-2.7,0.1H29z"/>
	<path class="st1" d="M22,10.5l23.2,0c-1.3-1.5-2.7-2.8-4.3-3.9H22V10.5z"/>
	<path class="st1" d="M7.5,43.8h37.6c1.1-1.2,2-2.5,2.8-3.9H4.7C5.5,41.3,6.5,42.6,7.5,43.8z"/>
	<path class="st1" d="M23.6,52.1H29c4-0.4,7.7-1.8,10.9-3.9H12.7C15.9,50.3,19.6,51.7,23.6,52.1z"/>
	<path class="st1" d="M22,27.1H1.2v0l50.2,0l0,0c0-1.3-0.1-2.6-0.3-3.9l-29.2,0V27.1z"/>
	<path class="st1" d="M22,18.8H50c-0.5-1.4-1.1-2.7-1.7-3.9H22V18.8z"/>
	<path class="st1" d="M2.6,35.4l47.4,0c0.4-1.3,0.8-2.6,1-3.9H1.6C1.9,32.9,2.2,34.2,2.6,35.4z"/>
	<path class="st2" d="M26.3,52.2c0.9,0,1.8-0.1,2.7-0.1h-5.4C24.5,52.2,25.4,52.2,26.3,52.2z"/>
	<path class="st2" d="M12.7,48.2H40c1.9-1.2,3.7-2.7,5.2-4.4H7.5C9,45.5,10.8,47,12.7,48.2z"/>
	<path class="st2" d="M4.7,39.9H48c0.8-1.4,1.5-2.9,2.1-4.4l-47.4,0C3.2,37,3.9,38.5,4.7,39.9z"/>
	<path class="st2" d="M1.6,31.6h49.4c0.3-1.4,0.4-2.9,0.4-4.4l-50.2,0C1.2,28.6,1.4,30.1,1.6,31.6z"/>
	<path class="st2" d="M22,23.2l29.2,0c-0.2-1.5-0.6-3-1.1-4.4H22V23.2z"/>
	<path class="st2" d="M22,14.9h26.3c-0.9-1.6-1.9-3.1-3.1-4.4l-23.2,0V14.9z"/>
	<path class="st2" d="M22,2.4v4.2h18.8c-3.4-2.4-7.4-4-11.8-4.4h-5.4C23.1,2.2,22.5,2.3,22,2.4z"/>
	<path class="st1" d="M22,23.2v-4.4v-3.9v-4.4V6.6V2.4c-0.8,0.1-1.5,0.3-2.3,0.5v22H1.3c-0.1,0.7-0.1,1.5-0.1,2.3H22V23.2z"/>
	<path class="st3" d="M19.7,2.9C9.8,5.6,2.3,14.3,1.3,24.8h18.4V2.9z"/>
</g>
<g>
	<path class="st4" d="M75.1,24.9H82c0.6,0,1.1-0.1,1.5-0.2s0.7-0.4,1-0.6s0.5-0.6,0.6-0.9s0.3-0.7,0.3-1.1l0.2-1.5h1.9l-0.2,6.3H68
		v-1.5h0.5c0.4,0,0.8,0,1.1-0.1s0.7-0.2,0.9-0.3s0.5-0.4,0.6-0.7s0.2-0.7,0.2-1.3V5.1c0-0.6-0.1-1-0.2-1.4s-0.4-0.6-0.6-0.8
		S70,2.6,69.6,2.6s-0.7-0.1-1.2-0.1H68V1h18.1l0.2,6.3h-1.9l-0.2-1.5c0-0.4-0.1-0.8-0.3-1.1s-0.3-0.7-0.6-0.9S82.9,3.2,82.5,3
		s-0.8-0.2-1.4-0.2h-6v9.6h8.7v1.8h-8.7V24.9z"/>
	<path class="st4" d="M103.5,27c-2.1,0-3.9-0.3-5.5-0.9s-2.8-1.5-3.9-2.7s-1.8-2.6-2.3-4.2s-0.8-3.4-0.8-5.4c0-1.9,0.3-3.7,0.8-5.3
		s1.3-3,2.4-4.2s2.4-2.1,3.9-2.7s3.4-1,5.5-1c1.3,0,2.5,0.1,3.5,0.3s1.8,0.5,2.5,0.9s1.2,0.8,1.5,1.3s0.5,1,0.5,1.6
		c0,0.4-0.1,0.7-0.3,1s-0.4,0.6-0.7,0.8s-0.7,0.4-1.1,0.5s-0.8,0.2-1.3,0.2c0-0.6-0.1-1.1-0.2-1.7s-0.4-1-0.8-1.5s-0.9-0.8-1.5-1.1
		s-1.4-0.4-2.2-0.4c-1.5,0-2.8,0.2-3.9,0.7s-1.9,1.2-2.6,2.2S95.9,7.6,95.6,9s-0.5,3-0.5,4.8c0,1.8,0.2,3.4,0.5,4.8s0.8,2.6,1.5,3.5
		s1.6,1.7,2.8,2.2s2.5,0.7,4.2,0.7c0.7,0,1.4,0,2-0.1s1.2-0.2,1.7-0.3v-5.8c0-0.5-0.1-1-0.2-1.3s-0.4-0.6-0.6-0.7s-0.6-0.3-0.9-0.3
		s-0.7-0.1-1.1-0.1h-0.1v-1.5h9.4v1.5H114c-0.3,0-0.7,0-1,0.1s-0.6,0.2-0.8,0.4s-0.4,0.4-0.5,0.8s-0.2,0.8-0.2,1.4v6.5
		c-1.2,0.6-2.4,1-3.7,1.2S105.1,27,103.5,27z"/>
	<path class="st4" d="M139.5,13.8c0,2-0.2,3.8-0.7,5.4s-1.2,3-2.2,4.2s-2.1,2.1-3.6,2.7s-3,0.9-4.8,0.9c-1.9,0-3.6-0.3-5-0.9
		s-2.6-1.5-3.5-2.7s-1.6-2.6-2.1-4.2s-0.7-3.4-0.7-5.4s0.2-3.8,0.7-5.4s1.2-3,2.1-4.2s2.1-2,3.6-2.7s3.1-0.9,5-0.9
		c1.8,0,3.4,0.3,4.8,0.9s2.6,1.5,3.5,2.7s1.7,2.5,2.2,4.2S139.5,11.8,139.5,13.8z M120.8,13.8c0,1.8,0.1,3.4,0.4,4.8
		s0.7,2.6,1.3,3.6s1.3,1.7,2.3,2.2s2.1,0.8,3.4,0.8s2.5-0.3,3.4-0.8s1.7-1.2,2.3-2.2s1-2.2,1.3-3.6s0.4-3,0.4-4.8s-0.1-3.4-0.4-4.8
		s-0.7-2.6-1.3-3.5s-1.3-1.7-2.3-2.2s-2-0.8-3.4-0.8s-2.5,0.3-3.4,0.8s-1.7,1.2-2.3,2.2s-1,2.1-1.3,3.5S120.8,12,120.8,13.8z"/>
	<path class="st4" d="M152.3,26.7l-7.8-22.3c-0.1-0.4-0.3-0.7-0.4-0.9s-0.3-0.4-0.5-0.6s-0.4-0.2-0.7-0.3s-0.6-0.1-0.9-0.1h-0.5V1
		h9.9v1.5h-0.8c-0.7,0-1.3,0.1-1.6,0.4s-0.5,0.7-0.5,1.3c0,0.2,0,0.4,0.1,0.6s0.1,0.5,0.2,0.7l4,11.7c0.4,1.1,0.7,2.1,0.9,3.1
		s0.5,1.9,0.7,2.8c0.2-0.9,0.4-1.8,0.7-2.8s0.6-2,1-3.1l4-11.4c0.1-0.3,0.2-0.6,0.2-0.8s0.1-0.5,0.1-0.7c0-0.6-0.2-1.1-0.6-1.3
		s-1-0.4-1.8-0.4H157V1h8.8v1.5h-0.7c-0.4,0-0.7,0-0.9,0.1s-0.5,0.2-0.7,0.4s-0.4,0.5-0.6,0.9s-0.4,0.8-0.6,1.4l-7.5,21.4H152.3z"/>
	<path class="st4" d="M178.6,22.6c0,0.6,0.1,1,0.2,1.4s0.4,0.6,0.6,0.8s0.6,0.3,0.9,0.4s0.7,0.1,1.1,0.1h0.8v1.5h-11.2v-1.5h0.8
		c0.4,0,0.8,0,1.1-0.1s0.7-0.2,0.9-0.3s0.5-0.4,0.6-0.7s0.2-0.7,0.2-1.3v-20h-3.4c-0.5,0-1,0.1-1.3,0.2s-0.7,0.4-0.9,0.6
		s-0.4,0.6-0.5,0.9s-0.2,0.7-0.2,1.1l-0.2,1.5h-1.9l0.2-6.3H187l0.2,6.3h-1.9l-0.2-1.5c0-0.4-0.1-0.8-0.2-1.1s-0.3-0.7-0.5-0.9
		s-0.5-0.5-0.9-0.6s-0.8-0.2-1.4-0.2h-3.5V22.6z"/>
</g>
<rect x="67" y="34" class="st5" width="122" height="18"/>
<rect x="71" y="43" class="st6" width="9" height="1"/>
<rect x="176" y="43" class="st6" width="9" height="1"/>
<g>
	<path class="st7" d="M85.2,48v-9.7H88c1.7,0,2.5,0.9,2.5,2.8c0,0.9-0.2,1.6-0.7,2s-1.1,0.6-1.9,0.6H87V48H85.2z M87,42.4h0.6
		c0.5,0,0.8-0.1,1-0.3s0.3-0.6,0.3-1.1c0-0.3,0-0.5,0-0.7s-0.1-0.3-0.2-0.4s-0.2-0.2-0.4-0.3s-0.4-0.1-0.7-0.1H87V42.4z"/>
	<path class="st7" d="M94.5,48.1c-1,0-1.7-0.3-2.2-0.8s-0.7-1.3-0.7-2.4v-3.6c0-0.5,0-1,0.1-1.3s0.3-0.7,0.5-1s0.5-0.5,0.9-0.6
		s0.8-0.2,1.3-0.2c1,0,1.7,0.3,2.1,0.8s0.7,1.3,0.7,2.4v3.6c0,0.5,0,1-0.1,1.3s-0.3,0.7-0.5,1s-0.5,0.5-0.9,0.6S95,48.1,94.5,48.1z
		 M94.1,46.7c0.1,0.1,0.3,0.1,0.4,0.1s0.3,0,0.4-0.1s0.2-0.1,0.3-0.2s0.1-0.2,0.2-0.3s0.1-0.3,0.1-0.4s0-0.3,0-0.5v-4.4
		c0-0.2,0-0.4,0-0.6s-0.1-0.3-0.1-0.4s-0.2-0.2-0.3-0.3s-0.3-0.1-0.5-0.1s-0.4,0-0.5,0.1s-0.2,0.2-0.3,0.3s-0.1,0.3-0.1,0.4
		s0,0.4,0,0.6v4.4c0,0.2,0,0.3,0,0.5s0,0.3,0.1,0.4s0.1,0.2,0.2,0.3S94,46.7,94.1,46.7z"/>
	<path class="st7" d="M99.1,48v-9.7h1.8v8.5h2.3V48H99.1z"/>
	<path class="st7" d="M104.7,48v-9.7h1.7V48H104.7z"/>
	<path class="st7" d="M109.3,48v-8.4h-1.6v-1.3h5v1.3h-1.6V48H109.3z"/>
	<path class="st7" d="M114,48v-9.7h1.7V48H114z"/>
	<path class="st7" d="M120.3,48.1c-0.4,0-0.8-0.1-1.1-0.2s-0.6-0.3-0.8-0.4s-0.4-0.4-0.5-0.7s-0.2-0.6-0.3-0.9s-0.1-0.7-0.1-1.1
		v-3.4c0-0.4,0-0.8,0.1-1.1s0.1-0.6,0.3-0.9s0.3-0.5,0.5-0.7s0.5-0.3,0.8-0.4s0.7-0.2,1.1-0.2c0.5,0,0.9,0.1,1.2,0.2
		s0.6,0.3,0.8,0.6s0.3,0.5,0.4,0.9s0.1,0.7,0.1,1.2v0.8h-1.7V41c0-0.5,0-0.8-0.1-1c-0.1-0.3-0.3-0.5-0.7-0.5c0,0-0.1,0-0.1,0
		c-0.1,0-0.3,0-0.4,0.1s-0.2,0.1-0.3,0.2s-0.1,0.2-0.2,0.2s-0.1,0.2-0.1,0.3s0,0.3,0,0.4s0,0.3,0,0.4v4.1c0,0.6,0.1,1,0.2,1.2
		s0.4,0.4,0.8,0.4c0.1,0,0.2,0,0.3,0s0.2-0.1,0.2-0.1s0.1-0.1,0.2-0.2s0.1-0.2,0.1-0.2s0-0.2,0.1-0.3s0-0.2,0-0.3s0-0.2,0-0.4v-0.9
		h1.7v0.8c0,0.4,0,0.7-0.1,1s-0.1,0.6-0.3,0.8s-0.3,0.5-0.5,0.6s-0.4,0.3-0.8,0.4S120.7,48.1,120.3,48.1z"/>
	<path class="st7" d="M124.1,48l2-9.7h1.8l2,9.7h-1.6l-0.4-2.3h-1.7l-0.4,2.3H124.1z M126.4,44.6h1.3l-0.7-4L126.4,44.6z"/>
	<path class="st7" d="M131.4,48v-9.7h1.8v8.5h2.3V48H131.4z"/>
	<path class="st7" d="M140.3,48v-9.7h2.8c1.7,0,2.5,0.9,2.5,2.8c0,0.9-0.2,1.6-0.7,2s-1.1,0.6-1.9,0.6h-0.9V48H140.3z M142.1,42.4
		h0.6c0.5,0,0.8-0.1,1-0.3s0.3-0.6,0.3-1.1c0-0.3,0-0.5,0-0.7s-0.1-0.3-0.2-0.4s-0.2-0.2-0.4-0.3s-0.4-0.1-0.7-0.1h-0.6V42.4z"/>
	<path class="st7" d="M146.5,48l2-9.7h1.8l2,9.7h-1.6l-0.4-2.3h-1.7l-0.4,2.3H146.5z M148.7,44.6h1.3l-0.7-4L148.7,44.6z"/>
	<path class="st7" d="M153.7,48v-9.7h2.2c0.5,0,1,0,1.3,0.1s0.7,0.2,1,0.4s0.5,0.5,0.6,0.8s0.2,0.8,0.2,1.2c0,0.6-0.1,1.1-0.3,1.5
		s-0.5,0.7-0.9,0.8l1.3,4.8h-1.8l-1.2-4.4h-0.8V48H153.7z M155.5,42.4h0.4c0.5,0,0.9-0.1,1.1-0.3s0.3-0.6,0.3-1.1
		c0-0.5-0.1-0.9-0.3-1.1s-0.5-0.3-1.1-0.3h-0.5V42.4z"/>
	<path class="st7" d="M161.8,48v-8.4h-1.6v-1.3h5v1.3h-1.6V48H161.8z"/>
	<path class="st7" d="M167.8,48v-3.7l-2-6h1.7l1.2,3.9l1.1-3.9h1.6l-2,6V48H167.8z"/>
</g>
</svg>
