<?xml version="1.0" encoding="utf-8"?>
<!-- Generator: Adobe Illustrator 22.1.0, SVG Export Plug-In . SVG Version: 6.00 Build 0)  -->
<svg version="1.1" id="Layer_1" xmlns="http://www.w3.org/2000/svg" xmlns:xlink="http://www.w3.org/1999/xlink" x="0px" y="0px"
	 viewBox="0 0 260 82" style="enable-background:new 0 0 260 82;" xml:space="preserve">
<style type="text/css">
	.st0{fill:#202B5D;}
	.st1{fill:#9095AE;}
	.st2{fill:#23D3D3;}
</style>
<g>
	<path class="st0" d="M113.2,39.8c0,0.1-0.1,0.2-0.3,0.2c-0.1,0-0.8,0-2.2-0.1c-1.3,0-3.3-0.1-6.3-0.1c-1.3,0-2.7,0-3.7,0.1
		c-0.1,0-0.1,0-0.1-0.1c0-0.1,0-0.4,0.2-0.4l1.2-0.3c0.3-0.1,0.4-0.2,0.4-0.6c0-1,0-8.9,0-10.3c0-1.4-0.1-7.8-0.2-9.2
		c0-0.4-0.1-0.6-0.4-0.6l-1-0.3c-0.1,0-0.1-0.2-0.1-0.4c0-0.1,0-0.1,0.1-0.1h3.3c3,0,5.2,0,6.6-0.1c1.4,0,2.2,0,2.3,0
		c0.2,0,0.2,0.1,0.2,0.3l0.1,4c0,0.1-0.3,0.3-0.4,0.3c0,0-0.1,0-0.1-0.1c-0.4-1-0.9-2-1.3-3.1c-0.1-0.3-0.4-0.4-0.6-0.4
		c-0.5-0.1-3.1-0.4-3.6-0.3c-0.3,0-0.3,0.1-0.3,0.3c-0.2,2.5-0.3,8.2-0.3,9.2c1.3,0.1,4.6,0.2,5.6,0.2c0.1,0,0.1,0,0.1,0.1
		c0,0.3-0.2,0.6-0.3,0.6c-1.4,0.1-3.5,0.3-5,0.4c-0.3,0-0.4,0.1-0.4,0.3c0,1-0.2,8.2-0.2,9.3c0,0.4,0.1,0.5,0.3,0.5
		c1.2,0,3.2-0.1,4.5-0.4c0.4-0.1,0.6-0.3,0.8-0.6c0.6-0.9,1.2-1.8,1.7-2.7c0-0.1,0.1-0.1,0.1-0.1c0.1,0,0.4,0.2,0.3,0.4L113.2,39.8z
		"/>
	<path class="st0" d="M129.9,30.2C129.9,30.2,129.9,30.2,129.9,30.2c0.1,0.2,0,0.4,0,0.5l-0.8,0.2c-0.2,0.1-0.3,0.3-0.3,0.4
		c-0.1,2-0.3,5.7-0.4,8c0,0.1,0,0.3-0.1,0.3c-1.2,0.5-3.1,0.6-4.5,0.6c-4.6,0-8.5-3-8.5-10.1c0-5,1.8-8.6,4.2-10.5
		c1.6-1.4,3.8-2.1,5.6-2.1c1.1,0,2.1,0.1,2.8,0.5c0.1,0.1,0.2,0.2,0.2,0.4l0.3,4.3c0,0.2-0.3,0.3-0.4,0.3c0,0-0.1,0-0.1-0.1
		c-0.5-1.3-1.1-2.6-1.7-3.9c-0.1-0.2-0.2-0.4-0.4-0.6c-0.1-0.2-0.5-0.3-0.9-0.3c-1.1,0-2.1,0.8-2.7,1.7c-1.5,2.3-2.4,5.4-2.4,9.9
		c0,6.6,2.6,9.8,4.4,9.8c0.2,0,0.4,0,0.5-0.1c0.1-0.1,0.2-0.1,0.2-0.4c0-0.5-0.1-6.3-0.3-8c0-0.1-0.1-0.3-0.3-0.3l-1.2-0.2
		c-0.1,0-0.2-0.3-0.2-0.4c0,0,0-0.1,0.1-0.1H129.9z"/>
	<path class="st0" d="M136.8,40.2c-3.6,0-5.7-3.3-5.7-7.6c0-4.9,2.2-9.4,7.2-9.4c4,0,6.1,3.2,6.1,7.5
		C144.4,35.3,142.4,40.2,136.8,40.2L136.8,40.2z M137.9,39.5c2.2,0,2.2-4.1,2.2-8.1c0-4.1-0.7-7.5-2.3-7.5c-2.1,0-2.4,3.9-2.4,8.2
		C135.4,35.8,136.2,39.5,137.9,39.5L137.9,39.5z"/>
	<path class="st0" d="M158.9,23.5c0,0,0.1,0,0.1,0.1c0,0.1,0,0.3-0.2,0.4l-0.6,0.3c-0.2,0.1-0.4,0.1-0.5,0.5
		c-0.7,2.4-3.3,11.4-4.5,14.4c-0.3,0.6-0.4,0.7-2.2,0.8h-1c-0.2,0-0.3-0.1-0.4-0.2c-0.8-2.5-2.7-9.9-4-15c0-0.2-0.1-0.4-0.3-0.5
		l-0.8-0.3c-0.1,0-0.1-0.2-0.1-0.4c0-0.1,0.1-0.1,0.1-0.1h7.2c0.1,0,0.1,0,0.1,0.1c0,0.2,0,0.4-0.1,0.4l-0.9,0.3
		c-0.3,0.1-0.3,0.2-0.3,0.5c0.3,2.7,1.5,9.5,2.1,12.3c0.1,0.3,0.1,0.6,0.2,0.9h0.1c0.1-0.4,0.2-0.8,0.3-1.1c0.8-3.3,1.7-8.5,2-12.1
		c0-0.2-0.1-0.4-0.4-0.5l-0.9-0.3c-0.1,0-0.1-0.2-0.1-0.4c0,0,0-0.1,0.1-0.1H158.9z"/>
	<path class="st0" d="M164.9,24.9c-0.1,2.4-0.2,5.2-0.2,8.2c0,5.2,1.3,5.9,2.6,5.9c0.3,0,0.6,0,0.8,0c0.3,0,0.8-0.2,1.4-0.4
		c0.1,0,0.1,0.2,0.1,0.3c0,0.2-0.1,0.3-0.1,0.3c-0.4,0.2-1.5,0.8-2.6,1c-0.3,0-0.5,0-1.5,0c-2.9,0-4.8-1.3-4.9-6.5
		c0-1.9,0.3-6.2,0.5-8.7l-2.3,0c-0.1,0-0.1,0-0.1-0.2c0-0.1,0-0.4,0.1-0.6c0.1-0.2,0.3-0.5,0.6-0.5l1.9,0c0.1-0.6,0.3-2,0.5-3.1
		c0.1-0.4,0.3-0.8,1.3-1.3c0.6-0.3,2-0.8,2.2-0.8c0.1,0,0.1,0.1,0.1,0.3c-0.1,1-0.3,3.5-0.4,4.9l4.4,0.1c0,0,0.1,0,0.1,0.1
		c0,0.2-0.1,0.5-0.2,0.5L164.9,24.9z"/>
	<path class="st0" d="M174.3,30.4c0-5.4,1.8-9,4.2-11c1.4-1.3,3.3-2,5.3-2c0.9,0,1.8,0.1,2.4,0.4c0.1,0,0.2,0.1,0.2,0.3l0.5,4.6
		c0,0.1-0.4,0.3-0.5,0.3c0,0-0.1,0-0.1-0.1c-0.6-1.3-1.2-2.7-1.8-4c-0.1-0.2-0.2-0.4-0.4-0.6c-0.1-0.1-0.4-0.3-0.7-0.3
		c-1,0-1.7,0.8-2.4,1.7c-1.4,2.2-2.2,5.3-2.2,10c0,6.8,2.7,8.9,4.4,8.9c0.8,0,1.5-0.1,1.9-0.2c0.4-0.1,1.4-0.5,1.8-0.8
		c0.1,0,0.2,0.2,0.2,0.4c0,0.1,0,0.1-0.1,0.2c-0.5,0.4-1.5,0.9-2.6,1.4c-0.4,0.2-1.4,0.4-2.6,0.4C177.9,40.2,174.3,37.4,174.3,30.4
		L174.3,30.4z"/>
	<path class="st0" d="M193.7,40.2c-3.6,0-5.7-3.3-5.7-7.6c0-4.9,2.2-9.4,7.2-9.4c4,0,6.1,3.2,6.1,7.5
		C201.3,35.3,199.3,40.2,193.7,40.2L193.7,40.2z M194.8,39.5c2.2,0,2.2-4.1,2.2-8.1c0-4.1-0.7-7.5-2.3-7.5c-2.1,0-2.4,3.9-2.4,8.2
		C192.3,35.8,193.1,39.5,194.8,39.5L194.8,39.5z"/>
	<path class="st0" d="M211.1,24.6c-0.1,0-0.2-0.3-0.2-0.3c0-0.1,0-0.1,0.1-0.2l4.7-0.9c0.2,0,0.3,0.1,0.3,0.3c0,0.6,0,6.4,0,8
		c0,1.9,0.1,6,0.1,7.1c0,0.3,0,0.4,0.3,0.5l1,0.4c0.1,0,0.2,0.2,0.2,0.4c0,0.1,0,0.1-0.1,0.1c-0.8,0-1.7,0-2.7,0c-0.9,0-1.7,0-2.4,0
		c-0.2,0-0.3-0.1-0.3-0.4c0-0.1-0.1-3.1-0.1-4.3v-1h-0.1c-0.1,0.4-0.3,0.8-0.3,0.9c-1,3.2-2.6,5-4.6,5c-2.4,0-3.8-2.6-3.8-7.2
		c0-2.8,0.3-6.2,0.5-7.8c0-0.4,0-0.5-0.3-0.5h-1.1c-0.1,0-0.3-0.3-0.3-0.4c0-0.1,0-0.1,0.1-0.1l4.9-0.9c0.2,0,0.3,0.1,0.3,0.4
		c0,0.6-0.1,5.8-0.1,7c0,4.9,0.4,7.1,1.7,7.1c1.9,0,3.1-4.4,3.5-9.3c0-0.6,0.2-2.8,0.2-3.3c0-0.3-0.1-0.5-0.4-0.5L211.1,24.6z"/>
	<path class="st0" d="M233.8,39.5c0.1,0,0.1,0.3,0.1,0.4c0,0,0,0.1-0.1,0.1c-1.1,0-1.9-0.1-3.3-0.1c-1.5,0-2.4,0-3.3,0.1
		c-0.1,0-0.1,0-0.1-0.1c0-0.2,0-0.3,0.1-0.4l1.1-0.4c0.3-0.1,0.4-0.3,0.4-0.5c0-0.5,0.2-3.9,0.2-5.3c0-2.8-0.1-7-1.9-7
		c-1.4,0-2.7,2.9-3.3,6.6c-0.1,1-0.4,4.1-0.4,5.8c0,0.3,0.1,0.4,0.3,0.5l1.1,0.4c0.1,0,0.1,0.3,0.1,0.4c0,0,0,0.1-0.1,0.1
		c-1.1,0-2-0.1-3.3-0.1c-1.5,0-2.3,0-3.4,0.1c-0.1,0-0.1,0-0.1-0.1c0-0.2,0.1-0.4,0.2-0.4l1.3-0.3c0.2-0.1,0.4-0.2,0.4-0.4
		c0-1-0.1-5.3-0.1-6.7c0-1.1-0.1-5.4-0.2-6.7c0-0.3-0.1-0.4-0.3-0.5l-1.2-0.1c-0.1,0-0.2-0.3-0.2-0.5c0,0,0-0.1,0.1-0.1l5.6-1
		c0.2,0,0.3,0.1,0.3,0.3c0,0.1-0.1,4-0.2,5.7c0,0.4,0,0.7-0.1,1.1h0.1c0.1-0.4,0.2-0.8,0.3-1c0.8-2.7,2.7-6,4.9-6
		c2.5,0,3.7,2.4,3.7,6.9c0,2.4-0.2,6.7-0.4,8.2c0,0.5,0,0.6,0.3,0.7L233.8,39.5z"/>
	<path class="st0" d="M240.4,24.9c-0.1,2.4-0.2,5.2-0.2,8.2c0,5.2,1.3,5.9,2.6,5.9c0.3,0,0.6,0,0.8,0c0.3,0,0.8-0.2,1.4-0.4
		c0.1,0,0.1,0.2,0.1,0.3c0,0.2-0.1,0.3-0.1,0.3c-0.4,0.2-1.5,0.8-2.6,1c-0.3,0-0.5,0-1.5,0c-2.9,0-4.8-1.3-4.9-6.5
		c0-1.9,0.3-6.2,0.5-8.7l-2.3,0c-0.1,0-0.1,0-0.1-0.2c0-0.1,0-0.4,0.1-0.6c0.1-0.2,0.3-0.5,0.6-0.5l1.9,0c0.1-0.6,0.3-2,0.5-3.1
		c0.1-0.4,0.3-0.8,1.3-1.3c0.6-0.3,2-0.8,2.2-0.8c0.1,0,0.1,0.1,0.1,0.3c-0.1,1-0.3,3.5-0.4,4.9l4.4,0.1c0,0,0.1,0,0.1,0.1
		c0,0.2-0.1,0.5-0.2,0.5L240.4,24.9z"/>
	<path class="st0" d="M258.6,23.5c0.1,0,0.1,0,0.1,0.1c0,0.2,0,0.4-0.2,0.4l-0.5,0.2c-0.3,0.1-0.5,0.2-0.5,0.5
		c-0.8,2.8-3.5,10.9-5.1,14.7c-0.8,1.9-3.3,7.4-6.6,7.4c-0.6,0-0.8-0.1-0.9-0.3l-0.9-3.6c0-0.1,0.2-0.4,0.3-0.4c0,0,0.1,0,0.1,0
		l0.9,1.2c0.6,0.8,0.8,0.9,1.2,0.9c0.9,0,2.9-1.2,3.7-3.5c0.1-0.2,0.1-0.4,0-0.7c-1.4-3.6-3.6-10.5-5.1-15.7
		c-0.1-0.2-0.1-0.4-0.4-0.5L244,24c-0.1,0-0.2-0.2-0.2-0.4c0-0.1,0-0.1,0.1-0.1h7.4c0.1,0,0.1,0,0.1,0.1c0,0.2-0.1,0.4-0.2,0.4
		l-0.9,0.3c-0.2,0-0.3,0.2-0.3,0.5c0.4,2.3,1.5,7.9,2.2,10.9c0.1,0.3,0.1,0.5,0.2,1h0.1c0.1-0.5,0.3-0.9,0.3-1.2
		c0.8-3.3,1.7-8,1.8-10.7c0-0.3-0.1-0.4-0.4-0.5l-0.9-0.3c-0.1,0-0.2-0.2-0.2-0.4c0-0.1,0-0.1,0.1-0.1H258.6z"/>
</g>
<g>
	<path class="st1" d="M157,62.3c0.1-0.2,0.1-0.4,0.2-0.6c0.6-2.4,1.7-7.5,2-10.5c0-0.3,0-0.3-0.2-0.4l-0.8-0.1
		c-0.1,0-0.1-0.1-0.1-0.2c0,0,0,0,0,0h2.9c0,0,0,0,0,0c0,0.1,0,0.2-0.1,0.2l-0.4,0.1c-0.2,0.1-0.3,0.1-0.3,0.3
		c-0.4,1.5-2.5,10-3,11.4c-0.1,0.2-0.1,0.3-1,0.3h-0.4c-0.1,0-0.1,0-0.1-0.1c-0.5-1.8-2.1-9.4-2.5-11.7c0-0.1-0.1-0.2-0.2-0.2
		l-0.5-0.1c-0.1,0-0.1-0.1-0.1-0.2c0,0,0,0,0,0h3.4c0,0,0,0,0,0.1c0,0.1-0.1,0.2-0.1,0.2l-0.8,0.1c-0.1,0-0.2,0.1-0.2,0.2
		c0.2,1.4,1.3,8.2,1.8,10.6C156.8,61.8,156.8,62.1,157,62.3L157,62.3z"/>
	<path class="st1" d="M164,53.5c0.1,0,0.2,0.1,0.2,0.2c0,0.2-0.1,3.5-0.2,4.8c0,0.8-0.1,3.2-0.1,3.8c0,0.1,0.1,0.2,0.2,0.2l0.6,0.2
		c0,0,0.1,0.1,0.1,0.2c0,0,0,0,0,0c-0.4,0-0.9,0-1.5,0c-0.6,0-1.1,0-1.4,0c0,0,0,0,0,0c0-0.1,0-0.2,0.1-0.2l0.7-0.2
		c0.1,0,0.2-0.1,0.2-0.2c0-0.2,0-2.6-0.1-3.9c0-1.1-0.1-3.1-0.1-3.8c0-0.1,0-0.2-0.1-0.2l-0.7,0c-0.1,0-0.1-0.1-0.1-0.2
		c0,0,0-0.1,0-0.1L164,53.5z M163.2,50.7c0.5,0,0.8,0.3,0.8,0.7c0,0.4-0.4,0.8-0.8,0.8c-0.4,0-0.9-0.3-0.9-0.7
		C162.4,51.1,162.7,50.7,163.2,50.7L163.2,50.7z"/>
	<path class="st1" d="M168.6,58.1c0-0.2,0.1-0.4,0.1-0.6c0.3-1.5,1.1-4,2.5-4c0.2,0,0.3,0,0.5,0.1c0,0,0.1,0,0.1,0.1l0.1,2.1
		c0,0.1-0.1,0.2-0.2,0.2c0,0,0,0,0,0c-0.2-0.4-0.3-0.8-0.5-1.2c-0.1-0.1-0.2-0.2-0.4-0.2c-1.1,0-2,3.4-2.2,5.6
		c-0.1,0.5-0.1,1.8-0.1,2.1c0,0.1,0.1,0.2,0.2,0.2l1.1,0.2c0,0,0.1,0.1,0.1,0.2c0,0,0,0,0,0c-0.3,0-1.1,0-1.9,0c-0.7,0-1.2,0-1.4,0
		c0,0,0,0,0,0c0-0.1,0-0.2,0.1-0.2l0.6-0.2c0.1,0,0.1-0.1,0.1-0.2c0-0.2,0-2.8,0-4.1c0-1.2-0.1-2.9-0.1-3.6c0-0.1,0-0.2-0.1-0.3
		h-0.7c-0.1,0-0.1-0.1-0.1-0.2c0,0,0,0,0.1-0.1l2.2-0.5c0.2,0,0.2,0,0.2,0.1c0,0.1-0.1,2.9-0.2,4C168.5,57.8,168.5,57.9,168.6,58.1
		L168.6,58.1z"/>
	<path class="st1" d="M173.5,57.1c0-1.9,1.2-3.6,3-3.6c0.5,0,0.9,0.1,1.2,0.1c0.2,0,0.3,0,0.5,0l1.7,0c0,0,0.1,0,0.1,0
		c0,0.1,0,0.2-0.1,0.2l-1.5,0.2c0.5,0.6,0.7,1.4,0.7,2.2c0,2-1.2,3-2.4,3.3c-0.3,0.1-0.6,0.2-0.9,0.4c-0.6,0.3-0.8,0.5-0.8,0.7
		c0,0.4,0.9,0.6,2,0.8c1.7,0.4,3,0.8,3,2.2c0,1.6-1.9,2.8-4.2,2.8c-1.9,0-3.2-0.7-3.2-1.9c0-0.9,0.4-1.3,2.6-2.7
		c-0.5-0.1-0.9-0.3-1.2-0.5c-0.2-0.1-0.3-0.3-0.3-0.7c0-0.2,0.1-0.2,0.2-0.3c0.7-0.3,1.1-0.5,1.6-0.7
		C174.4,59.5,173.5,58.5,173.5,57.1L173.5,57.1z M176.2,66.2c1.2,0,2.4-0.8,2.4-2c0-1.2-1.3-1.7-2.7-2c-0.2,0-0.2,0-0.4,0.1
		c-0.8,0.5-1.4,1.2-1.4,2.2C174.1,65.7,175,66.2,176.2,66.2L176.2,66.2z M176.3,59.4c0.8,0,1.3-0.8,1.3-2.9c0-1.5-0.4-2.7-1.3-2.7
		c-0.9,0-1.4,1.5-1.4,3.1C174.9,58.4,175.5,59.4,176.3,59.4L176.3,59.4z"/>
	<path class="st1" d="M183.2,53.5c0.1,0,0.2,0.1,0.2,0.2c0,0.2-0.1,3.5-0.2,4.8c0,0.8-0.1,3.2-0.1,3.8c0,0.1,0.1,0.2,0.2,0.2
		l0.6,0.2c0,0,0.1,0.1,0.1,0.2c0,0,0,0,0,0c-0.4,0-0.9,0-1.5,0c-0.6,0-1.1,0-1.4,0c0,0,0,0,0,0c0-0.1,0-0.2,0.1-0.2l0.7-0.2
		c0.1,0,0.2-0.1,0.2-0.2c0-0.2,0-2.6-0.1-3.9c0-1.1-0.1-3.1-0.1-3.8c0-0.1,0-0.2-0.1-0.2l-0.7,0c-0.1,0-0.1-0.1-0.1-0.2
		c0,0,0-0.1,0-0.1L183.2,53.5z M182.5,50.7c0.5,0,0.8,0.3,0.8,0.7c0,0.4-0.4,0.8-0.8,0.8c-0.4,0-0.9-0.3-0.9-0.7
		C181.6,51.1,182,50.7,182.5,50.7L182.5,50.7z"/>
	<path class="st1" d="M193,62.6c0.1,0,0.1,0.1,0.1,0.2c0,0,0,0,0,0c-0.4,0-0.8,0-1.3,0c-0.6,0-1.1,0-1.4,0c0,0,0,0,0,0
		c0-0.1,0-0.2,0.1-0.2l0.5-0.2c0.2,0,0.2-0.1,0.2-0.3c0-0.3,0.1-2.4,0.1-3.2c0-2.4-0.3-4.2-1.1-4.2c-1,0-2,3.2-2.3,5.1
		c-0.1,0.5-0.2,1.8-0.2,2.4c0,0.1,0.1,0.2,0.2,0.2l0.6,0.2c0.1,0,0.1,0.1,0.1,0.2c0,0,0,0,0,0c-0.5,0-0.9,0-1.5,0
		c-0.5,0-0.9,0-1.3,0c0,0,0,0,0,0c0-0.1,0-0.2,0.1-0.2l0.6-0.2c0.1,0,0.1-0.1,0.1-0.2c0-0.4,0-2.7,0-3.9c0-1,0-3.1-0.1-3.7
		c0-0.1,0-0.2-0.1-0.3l-0.7,0c-0.1,0-0.1-0.1-0.1-0.2c0,0,0,0,0.1-0.1l2.2-0.5c0.1,0,0.1,0,0.1,0.1c0,0.1-0.1,3-0.2,4.1
		c0,0.3,0,0.6,0,0.8h0.1c0-0.2,0.1-0.5,0.1-0.6c0.4-1.5,1.4-4.4,2.8-4.4c1.2,0,1.6,1.7,1.6,4.2c0,1.2-0.1,3.8-0.2,4.3
		c0,0.3,0,0.3,0.2,0.4L193,62.6z"/>
	<path class="st1" d="M201.4,53.6C201.5,53.6,201.5,53.7,201.4,53.6c0.1,0.1,0,0.2,0,0.2l-0.3,0.1c-0.1,0.1-0.2,0.2-0.3,0.4
		c-0.3,1.2-1.7,6.3-2.5,8c-0.6,1.6-1.9,4.1-3.4,4.1c-0.3,0-0.4-0.1-0.5-0.2l-0.4-1.7c0-0.1,0.1-0.2,0.2-0.2c0,0,0,0,0,0l0.5,0.8
		c0.2,0.2,0.3,0.3,0.5,0.3c0.6,0,1.7-1.1,2.2-2.4c0-0.1,0-0.2,0-0.5c-0.5-1.5-1.9-6.3-2.4-8.5c0-0.1,0-0.2-0.1-0.2l-0.5-0.1
		c-0.1,0-0.1-0.1-0.1-0.2c0,0,0,0,0,0h3.1c0,0,0,0,0,0.1c0,0.1-0.1,0.2-0.1,0.2l-0.6,0.1c-0.1,0-0.2,0.1-0.2,0.3
		c0.2,1.3,1,5.2,1.4,6.8c0,0.2,0.1,0.4,0.2,0.7h0.1c0.1-0.2,0.1-0.5,0.2-0.7c0.4-1.6,1.2-5.1,1.3-6.7c0-0.2-0.1-0.3-0.2-0.3
		l-0.5-0.1c-0.1,0-0.1-0.1-0.1-0.2c0,0,0,0,0.1,0H201.4z"/>
	<path class="st1" d="M206.7,57.8c0-0.5-0.1-1.1-0.1-1.4c-0.1-1.5-0.5-2.2-1.3-2.2c-0.6,0-1.3,0.6-2,1.6c0,0,0,0-0.1,0
		c-0.1,0-0.2-0.2-0.2-0.3c0.9-1.5,1.9-2.1,3-2.1c1.4,0,1.8,1.8,1.8,3.7c0,0.4,0,1.9-0.1,2.4c0,0.7-0.1,2.1-0.1,2.5
		c0,0.1,0,0.2,0.2,0.2l0.6,0.2c0.1,0,0.1,0.1,0.1,0.2c0,0,0,0-0.1,0c-0.2,0-0.6,0-1,0c-0.4,0-0.7,0-0.9,0c-0.1,0-0.1,0-0.1-0.1
		c0-0.3,0-1.2,0-1.6c0-0.2,0-0.4,0-0.6h0c-0.1,0.2-0.1,0.4-0.2,0.6c-0.3,0.8-1,1.9-2.2,1.9c-1,0-1.8-0.9-1.8-2.6
		c0-1.6,0.8-3.5,2.4-3.5c0.7,0,1.1,0.3,1.5,0.7C206.5,57.6,206.6,57.7,206.7,57.8L206.7,57.8z M205,62.2c0.7,0,1.3-1,1.7-2.7
		c0-0.1,0.1-0.3,0.1-0.4c0-0.1,0-0.3-0.1-0.4c-0.1-0.4-0.5-1.4-1.4-1.4c-0.8,0-1.3,1.2-1.3,2.7C203.9,61.4,204.3,62.2,205,62.2
		L205,62.2z"/>
</g>
<g>
	<g>
		<path class="st2" d="M53.4,32.3l-6.5-2.4c0.1-0.4,0.1-0.7,0.1-1.1c0-0.4-0.1-0.9-0.2-1.3l6.5-1.4c0.5-0.1,0.8-0.6,0.6-1.1
			c-0.1-0.5-0.7-0.8-1.1-0.6l-6.7,1.4c-1-1.4-2.6-2.4-4.5-2.4c-2.7,0-4.9,1.9-5.3,4.5h-2.1c0.5-3.7,3.6-6.6,7.4-6.6
			c2.1,0,4.2,0.9,5.6,2.5c0.3,0.4,0.9,0.4,1.3,0.1c0.4-0.3,0.4-0.9,0.1-1.3c-1.6-1.8-3.7-2.8-6-3.1v-2.1c0-0.5-0.4-0.9-0.9-0.9
			c-0.5,0-0.9,0.4-0.9,0.9v2.1C36,20,32.3,24,32.3,28.8c0,0.5,0.4,0.9,0.9,0.9h2.9l-2,21.8v0l-0.5,7.1c-1.8,0.6-3.1,2.3-3.1,4.3
			c0,0.5,0.4,0.9,0.9,0.9c0.5,0,0.9-0.4,0.9-0.9c0-1.4,1.2-2.6,2.6-2.6h14c1.4,0,2.6,1.2,2.6,2.6c0,0.8-0.4,1.5-0.9,2
			c-0.5,0.4,1.1,1.8,1.9,0.7c0.6-0.7,0.9-1.7,0.9-2.7c0-2-1.3-3.6-3-4.2c0,0-1.7-19.8-1.7-20.2c0-2.4-1.3-4-3.4-4h-6.8
			c-0.4,0-0.8,0.1-1.2,0.2l0.3-2.3c1,1.1,2.4,1.8,4,1.8c1.9,0,3.6-1,4.6-2.5l6.6,2.4c0.1,0,0.2,0.1,0.3,0.1c0.4,0,0.7-0.2,0.9-0.6
			C54.1,33,53.9,32.5,53.4,32.3z M35.7,54.9c0.6,0.4,1.4,0.6,1.9,0.6h8.6c0.5,0,1.3-0.1,1.9-0.5l0.4,3.5h-13L35.7,54.9z M36.1,51
			c0-1.2,0.5-2.5,2-2.5h7.6c1.5,0,2,1.3,2,2.5c0,2.5-1,2.5-1.5,2.5h-8.6C37.1,53.6,36.1,53.6,36.1,51z M45.7,46.6h-7.6
			c-0.7,0-1.3,0.2-1.8,0.5l0.4-4.9c0.5,0.3,1,0.3,1.4,0.3h7.7c0.4,0,0.9-0.1,1.4-0.3l0.3,4.9C47,46.8,46.4,46.6,45.7,46.6z
			 M38.5,36.4h6.8c1.3,0,1.7,1.1,1.7,2.2c0,2.2-0.8,2.2-1.3,2.2h-7.7c-0.4,0-1.3,0-1.3-2.2C36.8,37.5,37.3,36.4,38.5,36.4z
			 M41.6,32.3c-1.9,0-3.5-1.6-3.5-3.5c0-1.9,1.6-3.5,3.5-3.5c1.9,0,3.5,1.6,3.5,3.5C45.2,30.7,43.6,32.3,41.6,32.3z"/>
	</g>
	<g>
		<path class="st2" d="M41.5,81.7C19.2,81.7,1,63.5,1,41.2C1,18.9,19.2,0.7,41.5,0.7C63.8,0.7,82,18.9,82,41.2
			C82,63.5,63.8,81.7,41.5,81.7z M41.5,2.8C20.3,2.8,3.1,20,3.1,41.2c0,21.2,17.2,38.4,38.4,38.4c21.2,0,38.4-17.2,38.4-38.4
			C79.9,20,62.7,2.8,41.5,2.8z"/>
	</g>
	<g>
		<path class="st2" d="M26.3,67c-4.5,0-16.7-2-17.2-2.1l0.3-2C9.5,62.9,22,65,26.3,65c0,0,0.1,0,0.1,0c1.8,0,4.6-0.5,7.3-1
			c2.8-0.5,5.8-1,7.8-1.1c0,0,0,0,0,0c2.1,0,5.2,0.5,8.1,1.1c2.8,0.5,5.8,1,7.7,1c0,0,0,0,0,0c4,0,16.1-2,16.2-2.1l0.3,2
			C73.3,65,61.5,67,57.3,67c0,0,0,0,0,0c-2.1,0-5-0.5-8-1c-2.9-0.5-5.9-1-7.8-1c-1.8,0-4.7,0.5-7.4,1c-2.9,0.5-5.7,1-7.7,1
			C26.4,67,26.3,67,26.3,67z"/>
	</g>
	<g>
		<path class="st2" d="M56.4,72.8c-2,0-4.7-0.5-7.6-1.1c-2.7-0.5-5.5-1-7.2-1c-1.9,0-4.9,0.5-7.8,1c-3,0.5-6.1,1-8.1,1
			c-2.9,0-11.2-2-11.6-2.1l0.5-2c0.1,0,8.4,2,11.1,2c1.9,0,4.9-0.5,7.8-1c3-0.5,6.1-1,8.1-1c2,0,4.7,0.5,7.6,1.1
			c2.7,0.5,5.5,1,7.2,1c3,0,12.4-2,12.5-2l0.4,2C68.9,70.8,59.6,72.8,56.4,72.8z"/>
	</g>
	<g>
		<path class="st2" d="M56,78.3c-2.7,0-6-0.7-8.9-1.2c-2.2-0.4-4.2-0.8-5.5-0.8c-1.4,0-3.9,0.4-6.5,0.9c-3.2,0.6-6.9,1.2-9.6,1.2
			c-1.2,0-3.7-1.6-4.7-2.2l1.2-1.7c1.4,1,3.1,1.9,3.5,1.9c2.6,0,6.1-0.6,9.3-1.2c2.8-0.5,5.3-0.9,6.9-0.9c1.4,0,3.5,0.4,5.9,0.9
			c2.8,0.6,6,1.2,8.5,1.2c2.6,0,4.8-1.7,4.8-1.8l1.3,1.6C62,76.1,59.4,78.3,56,78.3z"/>
	</g>
	<g>
		<path class="st2" d="M68.4,65.8l-1.5-1.4c5.8-6.3,9-14.6,9-23.2c0-18.9-15.4-34.3-34.3-34.3C22.6,6.9,7.2,22.3,7.2,41.2
			c0,8.5,3.1,16.6,8.8,22.9l-1.5,1.4c-6-6.7-9.3-15.3-9.3-24.3c0-20.1,16.3-36.4,36.4-36.4c20.1,0,36.4,16.3,36.4,36.4
			C77.9,50.3,74.5,59,68.4,65.8z"/>
	</g>
	<g>
		<path class="st2" d="M76.5,45.8h-9.7c-0.6,0-1-0.5-1-1c0-0.6,0.5-1,1-1h9.7c0.6,0,1,0.5,1,1C77.5,45.3,77.1,45.8,76.5,45.8z"/>
	</g>
	<g>
		<path class="st2" d="M76.9,42.2H61.8c-0.6,0-1-0.5-1-1s0.5-1,1-1h15.1c0.6,0,1,0.5,1,1S77.4,42.2,76.9,42.2z"/>
	</g>
	<g>
		<path class="st2" d="M22.9,31.4H8c-0.6,0-1-0.5-1-1c0-0.6,0.5-1,1-1h14.9c0.6,0,1,0.5,1,1C24,30.9,23.5,31.4,22.9,31.4z"/>
	</g>
	<g>
		<path class="st2" d="M15.5,36.5H7c-0.6,0-1-0.5-1-1c0-0.6,0.5-1,1-1h8.4c0.6,0,1,0.5,1,1C16.5,36,16,36.5,15.5,36.5z"/>
	</g>
	<g>
		<path class="st2" d="M32.1,12.7H22c-0.6,0-1-0.5-1-1c0-0.6,0.5-1,1-1h10.1c0.6,0,1,0.5,1,1C33.1,12.3,32.7,12.7,32.1,12.7z"/>
	</g>
</g>
</svg>
