<?xml version="1.0" encoding="utf-8"?>
<!-- Generator: Adobe Illustrator 22.1.0, SVG Export Plug-In . SVG Version: 6.00 Build 0)  -->
<svg version="1.1" id="Layer_1" xmlns="http://www.w3.org/2000/svg" xmlns:xlink="http://www.w3.org/1999/xlink" x="0px" y="0px"
	 viewBox="0 0 82 82" style="enable-background:new 0 0 82 82;" xml:space="preserve">
<style type="text/css">
	.st0{fill:#23D3D3;}
</style>
<g>
	<g>
		<path class="st0" d="M52.4,32.3l-6.5-2.4c0.1-0.4,0.1-0.7,0.1-1.1c0-0.4-0.1-0.9-0.2-1.3l6.5-1.4c0.5-0.1,0.8-0.6,0.6-1.1
			c-0.1-0.5-0.7-0.8-1.1-0.6l-6.7,1.4c-1-1.4-2.6-2.4-4.5-2.4c-2.7,0-4.9,1.9-5.3,4.5h-2.1c0.5-3.7,3.6-6.6,7.4-6.6
			c2.1,0,4.2,0.9,5.6,2.5c0.3,0.4,0.9,0.4,1.3,0.1c0.4-0.3,0.4-0.9,0.1-1.3c-1.6-1.8-3.7-2.8-6-3.1v-2.1c0-0.5-0.4-0.9-0.9-0.9
			c-0.5,0-0.9,0.4-0.9,0.9v2.1C35,20,31.3,24,31.3,28.8c0,0.5,0.4,0.9,0.9,0.9h2.9l-2,21.8v0l-0.5,7.1c-1.8,0.6-3.1,2.3-3.1,4.3
			c0,0.5,0.4,0.9,0.9,0.9c0.5,0,0.9-0.4,0.9-0.9c0-1.4,1.2-2.6,2.6-2.6h14c1.4,0,2.6,1.2,2.6,2.6c0,0.8-0.4,1.5-0.9,2
			c-0.5,0.4,1.1,1.8,1.9,0.7c0.6-0.7,0.9-1.7,0.9-2.7c0-2-1.3-3.6-3-4.2c0,0-1.7-19.8-1.7-20.2c0-2.4-1.3-4-3.4-4h-6.8
			c-0.4,0-0.8,0.1-1.2,0.2l0.3-2.3c1,1.1,2.4,1.8,4,1.8c1.9,0,3.6-1,4.6-2.5l6.6,2.4c0.1,0,0.2,0.1,0.3,0.1c0.4,0,0.7-0.2,0.9-0.6
			C53.1,33,52.9,32.5,52.4,32.3z M34.7,54.9c0.6,0.4,1.4,0.6,1.9,0.6h8.6c0.5,0,1.3-0.1,1.9-0.5l0.4,3.5h-13L34.7,54.9z M35.1,51
			c0-1.2,0.5-2.5,2-2.5h7.6c1.5,0,2,1.3,2,2.5c0,2.5-1,2.5-1.5,2.5h-8.6C36.1,53.6,35.1,53.6,35.1,51z M44.7,46.6h-7.6
			c-0.7,0-1.3,0.2-1.8,0.5l0.4-4.9c0.5,0.3,1,0.3,1.4,0.3h7.7c0.4,0,0.9-0.1,1.4-0.3l0.3,4.9C46,46.8,45.4,46.6,44.7,46.6z
			 M37.5,36.4h6.8c1.3,0,1.7,1.1,1.7,2.2c0,2.2-0.8,2.2-1.3,2.2h-7.7c-0.4,0-1.3,0-1.3-2.2C35.8,37.5,36.3,36.4,37.5,36.4z
			 M40.6,32.3c-1.9,0-3.5-1.6-3.5-3.5c0-1.9,1.6-3.5,3.5-3.5c1.9,0,3.5,1.6,3.5,3.5C44.2,30.7,42.6,32.3,40.6,32.3z"/>
	</g>
	<g>
		<path class="st0" d="M40.5,81.7C18.2,81.7,0,63.5,0,41.2C0,18.9,18.2,0.7,40.5,0.7C62.8,0.7,81,18.9,81,41.2
			C81,63.5,62.8,81.7,40.5,81.7z M40.5,2.8C19.3,2.8,2.1,20,2.1,41.2c0,21.2,17.2,38.4,38.4,38.4c21.2,0,38.4-17.2,38.4-38.4
			C78.9,20,61.7,2.8,40.5,2.8z"/>
	</g>
	<g>
		<path class="st0" d="M25.3,67c-4.5,0-16.7-2-17.2-2.1l0.3-2C8.5,62.9,21,65,25.3,65c0,0,0.1,0,0.1,0c1.8,0,4.6-0.5,7.3-1
			c2.8-0.5,5.8-1,7.8-1.1c0,0,0,0,0,0c2.1,0,5.2,0.5,8.1,1.1c2.8,0.5,5.8,1,7.7,1c0,0,0,0,0,0c4,0,16.1-2,16.2-2.1l0.3,2
			C72.3,65,60.5,67,56.3,67c0,0,0,0,0,0c-2.1,0-5-0.5-8-1c-2.9-0.5-5.9-1-7.8-1c-1.8,0-4.7,0.5-7.4,1c-2.9,0.5-5.7,1-7.7,1
			C25.4,67,25.3,67,25.3,67z"/>
	</g>
	<g>
		<path class="st0" d="M55.4,72.8c-2,0-4.7-0.5-7.6-1.1c-2.7-0.5-5.5-1-7.2-1c-1.9,0-4.9,0.5-7.8,1c-3,0.5-6.1,1-8.1,1
			c-2.9,0-11.2-2-11.6-2.1l0.5-2c0.1,0,8.4,2,11.1,2c1.9,0,4.9-0.5,7.8-1c3-0.5,6.1-1,8.1-1c2,0,4.7,0.5,7.6,1.1
			c2.7,0.5,5.5,1,7.2,1c3,0,12.4-2,12.5-2l0.4,2C67.9,70.8,58.6,72.8,55.4,72.8z"/>
	</g>
	<g>
		<path class="st0" d="M55,78.3c-2.7,0-6-0.7-8.9-1.2c-2.2-0.4-4.2-0.8-5.5-0.8c-1.4,0-3.9,0.4-6.5,0.9c-3.2,0.6-6.9,1.2-9.6,1.2
			c-1.2,0-3.7-1.6-4.7-2.2l1.2-1.7c1.4,1,3.1,1.9,3.5,1.9c2.6,0,6.1-0.6,9.3-1.2c2.8-0.5,5.3-0.9,6.9-0.9c1.4,0,3.5,0.4,5.9,0.9
			c2.8,0.6,6,1.2,8.5,1.2c2.6,0,4.8-1.7,4.8-1.8l1.3,1.6C61,76.1,58.4,78.3,55,78.3z"/>
	</g>
	<g>
		<path class="st0" d="M67.4,65.8l-1.5-1.4c5.8-6.3,9-14.6,9-23.2c0-18.9-15.4-34.3-34.3-34.3C21.6,6.9,6.2,22.3,6.2,41.2
			c0,8.5,3.1,16.6,8.8,22.9l-1.5,1.4c-6-6.7-9.3-15.3-9.3-24.3c0-20.1,16.3-36.4,36.4-36.4c20.1,0,36.4,16.3,36.4,36.4
			C76.9,50.3,73.5,59,67.4,65.8z"/>
	</g>
	<g>
		<path class="st0" d="M75.5,45.8h-9.7c-0.6,0-1-0.5-1-1c0-0.6,0.5-1,1-1h9.7c0.6,0,1,0.5,1,1C76.5,45.3,76.1,45.8,75.5,45.8z"/>
	</g>
	<g>
		<path class="st0" d="M75.9,42.2H60.8c-0.6,0-1-0.5-1-1s0.5-1,1-1h15.1c0.6,0,1,0.5,1,1S76.4,42.2,75.9,42.2z"/>
	</g>
	<g>
		<path class="st0" d="M21.9,31.4H7c-0.6,0-1-0.5-1-1c0-0.6,0.5-1,1-1h14.9c0.6,0,1,0.5,1,1C23,30.9,22.5,31.4,21.9,31.4z"/>
	</g>
	<g>
		<path class="st0" d="M14.5,36.5H6c-0.6,0-1-0.5-1-1c0-0.6,0.5-1,1-1h8.4c0.6,0,1,0.5,1,1C15.5,36,15,36.5,14.5,36.5z"/>
	</g>
	<g>
		<path class="st0" d="M31.1,12.7H21c-0.6,0-1-0.5-1-1c0-0.6,0.5-1,1-1h10.1c0.6,0,1,0.5,1,1C32.1,12.3,31.7,12.7,31.1,12.7z"/>
	</g>
</g>
</svg>
